<?xml version="1.0" encoding="utf-8"?>
<!-- Generator: Adobe Illustrator 27.0.1, SVG Export Plug-In . SVG Version: 6.00 Build 0)  -->
<svg version="1.1" id="a" xmlns="http://www.w3.org/2000/svg" xmlns:xlink="http://www.w3.org/1999/xlink" x="0px" y="0px"
	 viewBox="0 0 64 64" style="enable-background:new 0 0 64 64;" xml:space="preserve">
<style type="text/css">
	.st0{fill:url(#SVGID_1_);}
	.st1{fill:#1877F2;}
	.st2{fill:#FFFFFF;}
</style>
<linearGradient id="SVGID_1_" gradientUnits="userSpaceOnUse" x1="119.1433" y1="-3.3102" x2="119.1433" y2="67.0898" gradientTransform="matrix(1 0 0 -1 0 63.8898)">
	<stop  offset="0" style="stop-color:#0062E0"/>
	<stop  offset="1" style="stop-color:#19AFFF"/>
</linearGradient>
<rect x="83.9" y="-3.2" class="st0" width="70.4" height="70.4"/>
<g>
	<path class="st1" d="M48,32c0-8.8-7.2-16-16-16s-16,7.2-16,16c0,8,5.9,14.6,13.5,15.8V36.6h-4.1V32h4.1v-3.5c0-4,2.4-6.2,6-6.2
		c1.8,0,3.6,0.3,3.6,0.3v3.9h-2c-2,0-2.6,1.2-2.6,2.5v3h4.4l-0.7,4.6h-3.7v11.2C42.1,46.6,48,40,48,32z"/>
	<path class="st2" d="M38.2,36.6l0.7-4.6h-4.4v-3c0-1.3,0.6-2.5,2.6-2.5h2v-3.9c0,0-1.8-0.3-3.6-0.3c-3.7,0-6,2.2-6,6.2V32h-4.1v4.6
		h4.1v11.2c0.8,0.1,1.6,0.2,2.5,0.2c0.9,0,1.7-0.1,2.5-0.2V36.6H38.2z"/>
</g>
</svg>
