<?xml version="1.0" encoding="UTF-8"?><svg id="a" xmlns="http://www.w3.org/2000/svg" viewBox="0 0 64 64"><defs><style>.c{fill:#fa7035;}.d{fill:#fff;}</style></defs><rect class="c" x="-3.2" y="-3.2" width="70.4" height="70.4"/><g id="b"><path class="d" d="M47.91,33.78l-1.7-5.25h0l-3.38-10.42c-.19-.55-.69-.92-1.28-.91-.59,0-1.08,.36-1.26,.92l-3.21,9.88h-10.13l-3.22-9.89c-.18-.56-.68-.92-1.26-.92h0c-.58,0-1.09,.37-1.27,.92l-3.37,10.4h0l-1.71,5.25c-.26,.79,.02,1.65,.69,2.14l14.77,10.73h0l.02,.02h-.01s.05,.02,.07,.03h.02v.02s.03,.01,.05,.02c.01,0,.02,.01,.04,.02h.03s.04,.02,.05,.02h.05s.07,.02,.11,.02h0s.07,0,.11,0h.06s.04-.02,.05-.02h.03s.03-.02,.04-.03c.01,0,.02,0,.04-.02h.02v-.02s.06-.03,.08-.04h.01l14.77-10.74c.67-.49,.95-1.35,.69-2.14Zm-6.36-14.69l2.9,8.92h-5.79l2.9-8.92Zm2.39,10.42l-1.18,1.51-8.72,11.17,4.12-12.68h5.78Zm-12.66,16.76h0Zm-1.32-4.07l-9.89-12.68h5.78l4.12,12.68Zm-7.51-23.11l2.9,8.92h-5.79l2.89-8.92Zm-4.77,15.61c-.14-.1-.2-.29-.15-.46l1.27-3.9,9.31,11.94-10.44-7.58Zm13.85,11.93h-.01l-.02-.02s-.02-.02-.03-.03h0s.04,.05,.07,.06h-.02Zm.47-3.04l-2.42-7.46-2.15-6.62h9.15l-4.58,14.08Zm.5,3.01h-.02v.02h-.01l-.02,.02h0s.05-.04,.07-.06h0l-.03,.02Zm13.83-11.91l-10.44,7.58,9.32-11.94,1.27,3.9c.05,.17,0,.35-.15,.46Z"/></g></svg>