<?xml version="1.0" encoding="UTF-8"?><svg id="a" xmlns="http://www.w3.org/2000/svg" xmlns:xlink="http://www.w3.org/1999/xlink" viewBox="0 0 64 64"><defs><style>.c{fill:url(#b);}.d{fill:#fff;}</style><linearGradient id="b" x1="-3.2" y1="67.2" x2="67.2" y2="-3.2" gradientTransform="matrix(1, 0, 0, 1, 0, 0)" gradientUnits="userSpaceOnUse"><stop offset="0" stop-color="#fda948"/><stop offset=".03" stop-color="#fca048"/><stop offset=".14" stop-color="#f88048"/><stop offset=".24" stop-color="#f66d48"/><stop offset=".31" stop-color="#f66748"/><stop offset=".59" stop-color="#ec3653"/><stop offset=".67" stop-color="#e83659"/><stop offset=".79" stop-color="#dd376b"/><stop offset=".93" stop-color="#cb3889"/><stop offset="1" stop-color="#c13a9c"/></linearGradient></defs><rect class="c" x="-3.2" y="-3.2" width="70.4" height="70.4"/><g><path class="d" d="M47.9,25.4c-.08-1.7-.35-2.87-.74-3.88-.41-1.05-.96-1.94-1.85-2.83-.89-.89-1.78-1.44-2.83-1.85-1.02-.4-2.18-.67-3.88-.74-1.71-.08-2.25-.1-6.6-.1s-4.89,.02-6.6,.1c-1.7,.08-2.87,.35-3.88,.74-1.05,.41-1.94,.96-2.83,1.85-.89,.89-1.44,1.78-1.85,2.83-.4,1.02-.67,2.18-.74,3.88-.08,1.71-.1,2.25-.1,6.6s.02,4.89,.1,6.6c.08,1.7,.35,2.87,.74,3.88,.41,1.05,.96,1.94,1.85,2.83,.89,.89,1.78,1.44,2.83,1.85,1.02,.4,2.18,.67,3.88,.74,1.71,.08,2.25,.1,6.6,.1s4.89-.02,6.6-.1c1.7-.08,2.87-.35,3.88-.74,1.05-.41,1.94-.96,2.83-1.85,.89-.89,1.44-1.78,1.85-2.83,.4-1.02,.67-2.18,.74-3.88,.08-1.71,.1-2.25,.1-6.6s-.02-4.89-.1-6.6Zm-2.88,13.06c-.07,1.56-.33,2.41-.55,2.97-.29,.75-.64,1.28-1.2,1.84-.56,.56-1.09,.91-1.84,1.2-.56,.22-1.41,.48-2.97,.55-1.69,.08-2.19,.09-6.47,.09s-4.78-.02-6.47-.09c-1.56-.07-2.41-.33-2.97-.55-.75-.29-1.28-.64-1.84-1.2-.56-.56-.91-1.09-1.2-1.84-.22-.56-.48-1.41-.55-2.97-.08-1.69-.09-2.19-.09-6.47s.02-4.78,.09-6.47c.07-1.56,.33-2.41,.55-2.97,.29-.75,.64-1.28,1.2-1.84,.56-.56,1.09-.91,1.84-1.2,.56-.22,1.41-.48,2.97-.55,1.69-.08,2.19-.09,6.47-.09s4.78,.02,6.47,.09c1.56,.07,2.41,.33,2.97,.55,.75,.29,1.28,.64,1.84,1.2,.56,.56,.91,1.09,1.2,1.84,.22,.56,.48,1.41,.55,2.97,.08,1.69,.09,2.19,.09,6.47s-.02,4.78-.09,6.47Z"/><path class="d" d="M32,23.78c-4.54,0-8.22,3.68-8.22,8.22s3.68,8.22,8.22,8.22,8.22-3.68,8.22-8.22-3.68-8.22-8.22-8.22Zm0,13.55c-2.95,0-5.33-2.39-5.33-5.33s2.39-5.33,5.33-5.33,5.33,2.39,5.33,5.33-2.39,5.33-5.33,5.33Z"/><path class="d" d="M40.54,21.54c-1.06,0-1.92,.86-1.92,1.92s.86,1.92,1.92,1.92,1.92-.86,1.92-1.92-.86-1.92-1.92-1.92Z"/></g></svg>