<?xml version="1.0" encoding="utf-8"?>
<!-- Generator: Adobe Illustrator 27.0.1, SVG Export Plug-In . SVG Version: 6.00 Build 0)  -->
<svg version="1.1" id="a" xmlns="http://www.w3.org/2000/svg" xmlns:xlink="http://www.w3.org/1999/xlink" x="0px" y="0px"
	 viewBox="0 0 64 64" style="enable-background:new 0 0 64 64;" xml:space="preserve">
<style type="text/css">
	.st0{fill:url(#SVGID_1_);}
	.st1{fill:url(#SVGID_00000005253755522479552440000011173907288288543365_);}
</style>
<linearGradient id="SVGID_1_" gradientUnits="userSpaceOnUse" x1="108.3577" y1="-3.3102" x2="178.7577" y2="67.0898" gradientTransform="matrix(1 0 0 -1 0 63.8898)">
	<stop  offset="0" style="stop-color:#FDA948"/>
	<stop  offset="3.000000e-02" style="stop-color:#FCA048"/>
	<stop  offset="0.14" style="stop-color:#F88048"/>
	<stop  offset="0.24" style="stop-color:#F66D48"/>
	<stop  offset="0.31" style="stop-color:#F66748"/>
	<stop  offset="0.59" style="stop-color:#EC3653"/>
	<stop  offset="0.67" style="stop-color:#E83659"/>
	<stop  offset="0.79" style="stop-color:#DD376B"/>
	<stop  offset="0.93" style="stop-color:#CB3889"/>
	<stop  offset="1" style="stop-color:#C13A9C"/>
</linearGradient>
<rect x="108.4" y="-3.2" class="st0" width="70.4" height="70.4"/>
<linearGradient id="SVGID_00000071543434135777454470000016880152432419382457_" gradientUnits="userSpaceOnUse" x1="18.69" y1="45.31" x2="45.31" y2="18.69">
	<stop  offset="0" style="stop-color:#FDA948"/>
	<stop  offset="3.000000e-02" style="stop-color:#FCA048"/>
	<stop  offset="0.14" style="stop-color:#F88048"/>
	<stop  offset="0.24" style="stop-color:#F66D48"/>
	<stop  offset="0.31" style="stop-color:#F66748"/>
	<stop  offset="0.59" style="stop-color:#EC3653"/>
	<stop  offset="0.67" style="stop-color:#E83659"/>
	<stop  offset="0.79" style="stop-color:#DD376B"/>
	<stop  offset="0.93" style="stop-color:#CB3889"/>
	<stop  offset="1" style="stop-color:#C13A9C"/>
</linearGradient>
<path style="fill:url(#SVGID_00000071543434135777454470000016880152432419382457_);" d="M47.9,25.4c-0.1-1.7-0.3-2.9-0.7-3.9
	c-0.4-1-1-1.9-1.8-2.8s-1.8-1.4-2.8-1.9c-1-0.4-2.2-0.7-3.9-0.7C36.9,16,36.3,16,32,16s-4.9,0-6.6,0.1c-1.7,0.1-2.9,0.4-3.9,0.7
	c-1,0.4-1.9,1-2.8,1.9c-0.9,0.9-1.4,1.8-1.9,2.8c-0.4,1-0.7,2.2-0.7,3.9C16,27.1,16,27.7,16,32s0,4.9,0.1,6.6
	c0.1,1.7,0.4,2.9,0.7,3.9c0.4,1,1,1.9,1.9,2.8c0.9,0.9,1.8,1.4,2.8,1.8c1,0.4,2.2,0.7,3.9,0.7C27.1,48,27.7,48,32,48s4.9,0,6.6-0.1
	c1.7-0.1,2.9-0.3,3.9-0.7c1-0.4,1.9-1,2.8-1.8c0.9-0.9,1.4-1.8,1.8-2.8c0.4-1,0.7-2.2,0.7-3.9C48,36.9,48,36.3,48,32
	S48,27.1,47.9,25.4z M45,38.5c-0.1,1.6-0.3,2.4-0.5,3c-0.3,0.8-0.6,1.3-1.2,1.8s-1.1,0.9-1.8,1.2c-0.6,0.2-1.4,0.5-3,0.5
	c-1.7,0.1-2.2,0.1-6.5,0.1s-4.8,0-6.5-0.1c-1.6-0.1-2.4-0.3-3-0.5c-0.8-0.3-1.3-0.6-1.8-1.2s-0.9-1.1-1.2-1.8
	c-0.2-0.6-0.5-1.4-0.5-3c-0.1-1.7-0.1-2.2-0.1-6.5s0-4.8,0.1-6.5c0.1-1.6,0.3-2.4,0.5-3c0.3-0.8,0.6-1.3,1.2-1.8
	c0.6-0.6,1.1-0.9,1.8-1.2c0.6-0.2,1.4-0.5,3-0.5c1.7-0.1,2.2-0.1,6.5-0.1s4.8,0,6.5,0.1c1.6,0.1,2.4,0.3,3,0.5
	c0.8,0.3,1.3,0.6,1.8,1.2c0.6,0.6,0.9,1.1,1.2,1.8c0.2,0.6,0.5,1.4,0.5,3c0.1,1.7,0.1,2.2,0.1,6.5S45.1,36.8,45,38.5z M32,23.8
	c-4.5,0-8.2,3.7-8.2,8.2s3.7,8.2,8.2,8.2s8.2-3.7,8.2-8.2S36.5,23.8,32,23.8z M32,37.3c-3,0-5.3-2.4-5.3-5.3s2.4-5.3,5.3-5.3
	s5.3,2.4,5.3,5.3S34.9,37.3,32,37.3z M40.5,21.5c-1.1,0-1.9,0.9-1.9,1.9s0.9,1.9,1.9,1.9s1.9-0.9,1.9-1.9S41.6,21.5,40.5,21.5z"/>
</svg>
