<?xml version="1.0" encoding="utf-8"?>
<!-- Generator: Adobe Illustrator 27.0.1, SVG Export Plug-In . SVG Version: 6.00 Build 0)  -->
<svg version="1.1" id="a" xmlns="http://www.w3.org/2000/svg" xmlns:xlink="http://www.w3.org/1999/xlink" x="0px" y="0px"
	 viewBox="0 0 64 64" style="enable-background:new 0 0 64 64;" xml:space="preserve">
<style type="text/css">
	.st0{fill-rule:evenodd;clip-rule:evenodd;fill:#41C9B4;}
</style>
<path class="st0" d="M30.3,30.2h-3.6c-0.5,0-0.6,0-0.7-0.1c-0.6-0.2-1.1-0.7-1.1-1.4c0-0.6,0.5-1.3,1.1-1.4c0.2-0.1,0.4-0.1,0.7-0.1
	H29v-2.3c0-0.5,0-0.6,0.1-0.7c0.2-0.6,0.7-1.1,1.4-1.1c0.6,0,1.3,0.5,1.4,1.1c0.1,0.2,0.1,0.4,0.1,0.7v3.6c0,0.2,0,0.5,0,0.6
	C31.9,29.6,31.5,30,31,30C30.8,30.2,30.5,30.2,30.3,30.2L30.3,30.2z M41.4,43H22.8V26.5c0-0.2,0.1-0.4,0.2-0.6l4.7-4.7
	c0.1-0.2,0.4-0.2,0.6-0.2h13.2V43H41.4z M20,23.8c-0.5,0.5-0.8,1.1-0.9,1.9c0,0.2,0,0.2,0,0.5v18.6c0,0.2,0,0.4,0,0.5
	c0.1,0.8,0.8,1.4,1.5,1.5c0.1,0,0.2,0,0.5,0h22c0.2,0,0.4,0,0.5,0c0.8-0.1,1.4-0.8,1.5-1.5c0-0.1,0-0.2,0-0.5V19.2
	c0-0.2,0-0.4,0-0.5c-0.1-0.8-0.8-1.4-1.5-1.5c-0.2,0-0.2,0-0.5,0H27.9c-0.2,0-0.4,0-0.5,0c-0.7,0.1-1.3,0.4-1.9,0.9L20,23.8L20,23.8
	z"/>
</svg>
