<?xml version="1.0" encoding="utf-8"?>
<!-- Generator: Adobe Illustrator 27.0.1, SVG Export Plug-In . SVG Version: 6.00 Build 0)  -->
<svg version="1.1" id="a" xmlns="http://www.w3.org/2000/svg" xmlns:xlink="http://www.w3.org/1999/xlink" x="0px" y="0px"
	 viewBox="0 0 64 64" style="enable-background:new 0 0 64 64;" xml:space="preserve">
<style type="text/css">
	.st0{fill:#41C9B4;}
	.st1{fill-rule:evenodd;clip-rule:evenodd;fill:#41C9B4;}
</style>
<rect x="73.8" y="-3.2" class="st0" width="70.4" height="70.4"/>
<path class="st1" d="M30,30.1h-3.8c-0.5,0-0.6,0-0.8-0.1c-0.6-0.2-1.1-0.8-1.1-1.5s0.5-1.4,1.1-1.5c0.2-0.1,0.4-0.1,0.8-0.1h2.5
	v-2.5c0-0.5,0-0.6,0.1-0.8c0.2-0.6,0.8-1.1,1.5-1.1s1.4,0.5,1.5,1.1c0.1,0.2,0.1,0.4,0.1,0.8v3.8c0,0.2,0,0.5,0,0.7
	c-0.1,0.6-0.6,1.1-1.2,1.2C30.5,30.1,30.2,30.1,30,30.1C30,30.1,30,30.1,30,30.1z M42.1,44H21.9V26.1c0-0.2,0.1-0.4,0.2-0.6l5.2-5.2
	c0.1-0.2,0.4-0.2,0.6-0.2h14.2V44z M18.8,23.1c-0.5,0.5-0.9,1.2-1,2c0,0.2,0,0.3,0,0.5v20.2c0,0.3,0,0.4,0,0.5
	c0.1,0.9,0.9,1.6,1.7,1.7c0.1,0,0.2,0,0.5,0h23.8c0.3,0,0.4,0,0.5,0c0.9-0.1,1.6-0.9,1.7-1.7c0-0.1,0-0.2,0-0.5V18.2
	c0-0.3,0-0.4,0-0.5c-0.1-0.9-0.9-1.6-1.7-1.7c-0.2,0-0.3,0-0.5,0H27.4c-0.2,0-0.4,0-0.5,0c-0.8,0.1-1.4,0.4-2,1L18.8,23.1L18.8,23.1
	z"/>
</svg>
