<?xml version="1.0" encoding="UTF-8"?><svg id="a" xmlns="http://www.w3.org/2000/svg" viewBox="0 0 64 64"><defs><style>.b{fill:#41c9b4;}.c{fill:#fff;fill-rule:evenodd;}</style></defs><rect class="b" x="-3.2" y="-3.2" width="70.4" height="70.4"/><path class="c" d="M30,30.09h-3.77c-.45,0-.59-.02-.82-.09-.62-.18-1.1-.8-1.1-1.53s.48-1.35,1.1-1.53c.23-.07,.38-.09,.82-.09h2.45v-2.45c0-.45,.02-.59,.09-.82,.18-.63,.8-1.1,1.53-1.1s1.35,.48,1.53,1.1c.07,.23,.09,.38,.09,.82v3.77c0,.23,0,.46-.05,.66-.15,.6-.62,1.06-1.21,1.21-.21,.05-.43,.05-.66,.05h0Zm12.12,13.86H21.88V26.12c0-.23,.08-.42,.24-.58l5.25-5.25c.15-.16,.36-.24,.58-.24h14.17v23.9ZM18.81,23.13c-.54,.54-.89,1.21-.96,1.97-.01,.16-.02,.33-.02,.49v20.16c0,.26,.01,.4,.02,.5,.09,.86,.87,1.64,1.73,1.73,.1,.01,.24,.02,.5,.02h23.84c.26,0,.4-.01,.5-.02,.86-.09,1.64-.87,1.73-1.73,.01-.1,.02-.24,.02-.5V18.25c0-.26-.01-.4-.02-.5-.09-.86-.87-1.64-1.73-1.73-.17-.02-.34-.02-.5-.02H27.41c-.18,0-.37,.01-.49,.02-.76,.07-1.43,.42-1.97,.96l-6.14,6.14Z"/></svg>