<?xml version="1.0" encoding="utf-8"?>
<!-- Generator: Adobe Illustrator 27.1.1, SVG Export Plug-In . SVG Version: 6.00 Build 0)  -->
<svg version="1.1" id="a" xmlns="http://www.w3.org/2000/svg" xmlns:xlink="http://www.w3.org/1999/xlink" x="0px" y="0px"
	 viewBox="0 0 64 64" style="enable-background:new 0 0 64 64;" xml:space="preserve">
<style type="text/css">
	.st0{fill:#FFFFFF;}
</style>
<g>
	<path class="st0" d="M17.9,28.6c-1.4,0-3.4,0-4.9,0v7.5h2.1v-5.6c0,0,1.9-0.1,2.5,0c0.6,0.1,0.9,0.5,0.9,1.3c0,0.9,0,1.4,0,4.3h2.1
		c0,0,0-3.4,0-4.5C20.5,29.5,19.8,28.7,17.9,28.6z"/>
	<path class="st0" d="M27.5,28.6c-2.1,0-3.7,1.7-3.7,3.8c0,2.1,1.7,3.8,3.7,3.8c2.1,0,3.7-1.7,3.7-3.8
		C31.3,30.3,29.6,28.6,27.5,28.6z M27.5,34.3c-1.1,0-2-0.9-2-2c0-1.1,0.9-2,2-2c1.1,0,2,0.9,2,2C29.5,33.4,28.6,34.3,27.5,34.3z"/>
	<path class="st0" d="M51,32.3c0-2.1-1.7-3.8-3.7-3.8c-2.1,0-3.7,1.7-3.7,3.8c0,1.2,0.6,2.3,1.4,3c0.6,0.5,1.4,0.8,2.6,0.8
		c0.5,0,2-0.2,3-1.3l-0.8-1.1c-0.4,0.3-1.3,0.8-2,0.8c-0.9,0-1.5-0.2-1.9-0.5c-0.2-0.2-0.4-0.6-0.5-1h5.6C51,32.7,51,32.5,51,32.3z
		 M45.4,31.7c0.2-0.9,0.8-1.5,1.9-1.5c1.1,0,1.7,0.7,1.9,1.5H45.4z"/>
	<path class="st0" d="M38.4,27.9h-2V30h-2v1.8h2V34h2v-2.2h2V30h-2V27.9z"/>
</g>
</svg>
