<?xml version="1.0" encoding="utf-8"?>
<!-- Generator: Adobe Illustrator 27.0.1, SVG Export Plug-In . SVG Version: 6.00 Build 0)  -->
<svg version="1.1" id="a" xmlns="http://www.w3.org/2000/svg" xmlns:xlink="http://www.w3.org/1999/xlink" x="0px" y="0px"
	 viewBox="0 0 64 64" style="enable-background:new 0 0 64 64;" xml:space="preserve">
<style type="text/css">
	.st0{fill:#FFFFFF;}
</style>
<rect x="74.6" y="-3.2" width="70.4" height="70.4"/>
<g>
	<path class="st0" d="M23.4,24.4c4.1,0,7.4,4.6,7.4,10.3s-3.3,10.3-7.4,10.3S16,40.4,16,34.7S19.3,24.4,23.4,24.4z M25,26.9
		c-1.6,0-2.8,1.8-2.8,4s1.3,4,2.8,4s2.8-1.8,2.8-4S26.5,26.9,25,26.9z"/>
	<path class="st0" d="M40.4,18.9c4.2,0,7.6,4.8,7.6,10.6s-3.4,10.6-7.6,10.6s-7.6-4.8-7.6-10.6S36.2,18.9,40.4,18.9z M42,21.5
		c-1.6,0-2.9,1.8-2.9,4.1s1.3,4.1,2.9,4.1s2.9-1.8,2.9-4.1S43.6,21.5,42,21.5z"/>
</g>
</svg>
