<?xml version="1.0" encoding="UTF-8"?><svg id="a" xmlns="http://www.w3.org/2000/svg" viewBox="0 0 64 64"><defs><style>.b{fill:#fff;}</style></defs><rect x="-3.2" y="-3.2" width="70.4" height="70.4"/><g><path class="b" d="M23.43,24.39c4.1,0,7.43,4.63,7.43,10.34s-3.33,10.34-7.43,10.34-7.43-4.63-7.43-10.34,3.33-10.34,7.43-10.34Zm1.56,2.5c-1.56,0-2.83,1.8-2.83,4.01s1.27,4.01,2.83,4.01,2.83-1.8,2.83-4.01-1.27-4.01-2.83-4.01Z"/><path class="b" d="M40.37,18.94c4.22,0,7.63,4.75,7.63,10.6s-3.42,10.6-7.63,10.6-7.63-4.75-7.63-10.6,3.42-10.6,7.63-10.6Zm1.6,2.57c-1.61,0-2.91,1.84-2.91,4.12s1.3,4.12,2.91,4.12,2.91-1.84,2.91-4.12-1.3-4.12-2.91-4.12Z"/></g></svg>