<?xml version="1.0" encoding="utf-8"?>
<!-- Generator: Adobe Illustrator 27.6.1, SVG Export Plug-In . SVG Version: 6.00 Build 0)  -->
<svg version="1.1" id="a" xmlns="http://www.w3.org/2000/svg" xmlns:xlink="http://www.w3.org/1999/xlink" x="0px" y="0px"
	 viewBox="0 0 64 64" style="enable-background:new 0 0 64 64;" xml:space="preserve">
<style type="text/css">
	.st0{fill:#FFFFFF;}
</style>
<path class="st0" d="M39.7,30.8c-0.1-0.1-0.3-0.1-0.4-0.2c-0.2-4.6-2.7-7.2-6.9-7.2c0,0,0,0-0.1,0c-2.5,0-4.6,1.1-5.9,3l2.3,1.6
	c1-1.4,2.5-1.8,3.6-1.8c0,0,0,0,0,0c1.4,0,2.4,0.4,3.1,1.2c0.5,0.6,0.8,1.4,1,2.3c-1.2-0.2-2.5-0.3-3.9-0.2c-4,0.2-6.5,2.5-6.4,5.8
	c0.1,1.6,0.9,3,2.3,4c1.2,0.8,2.7,1.2,4.3,1.1c2.1-0.1,3.7-0.9,4.8-2.4c0.9-1.1,1.4-2.5,1.6-4.3c1,0.6,1.7,1.4,2.1,2.3
	c0.7,1.6,0.7,4.2-1.4,6.4c-1.9,1.9-4.2,2.7-7.6,2.7c-3.8,0-6.7-1.2-8.5-3.6C21.9,39.3,21,36.1,21,32c0-4.1,0.9-7.3,2.7-9.6
	c1.9-2.4,4.7-3.6,8.5-3.6c3.8,0,6.8,1.3,8.7,3.6c1,1.2,1.7,2.6,2.1,4.4l2.7-0.7c-0.6-2.1-1.5-3.9-2.7-5.4c-2.5-3.1-6.1-4.6-10.8-4.7
	h0c-4.7,0-8.3,1.6-10.7,4.7c-2.2,2.7-3.3,6.5-3.3,11.3l0,0l0,0c0,4.8,1.1,8.6,3.3,11.3c2.4,3.1,6,4.6,10.7,4.7h0
	c4.2,0,7.1-1.1,9.5-3.5c3.2-3.2,3.1-7.1,2-9.5C43,33.2,41.6,31.8,39.7,30.8z M32.5,37.6c-1.7,0.1-3.5-0.7-3.6-2.4
	c-0.1-1.2,0.9-2.6,3.7-2.8c0.3,0,0.6,0,1,0c1,0,2,0.1,2.9,0.3C36.1,36.8,34.2,37.5,32.5,37.6z"/>
</svg>
