<?xml version="1.0" encoding="utf-8"?>
<!-- Generator: Adobe Illustrator 27.0.1, SVG Export Plug-In . SVG Version: 6.00 Build 0)  -->
<svg version="1.1" id="a" xmlns="http://www.w3.org/2000/svg" xmlns:xlink="http://www.w3.org/1999/xlink" x="0px" y="0px"
	 viewBox="0 0 64 64" style="enable-background:new 0 0 64 64;" xml:space="preserve">
<style type="text/css">
	.st0{fill:#FF0000;}
	.st1{fill:#FFFFFF;}
</style>
<rect x="74" y="-3.2" class="st0" width="70.4" height="70.4"/>
<path class="st0" d="M47.3,24.3c-0.4-1.4-1.5-2.5-2.8-2.8C42,20.8,32,20.8,32,20.8s-10,0-12.5,0.7c-1.4,0.4-2.5,1.5-2.8,2.8
	C16,26.8,16,32,16,32s0,5.2,0.7,7.7c0.4,1.4,1.5,2.5,2.8,2.8C22,43.2,32,43.2,32,43.2s10,0,12.5-0.7c1.4-0.4,2.5-1.5,2.8-2.8
	C48,37.2,48,32,48,32S48,26.8,47.3,24.3z"/>
<polygon class="st1" points="28.8,36.8 28.8,27.2 37.1,32 "/>
</svg>
