<?xml version="1.0" encoding="utf-8"?>
<!-- Generator: Adobe Illustrator 27.0.1, SVG Export Plug-In . SVG Version: 6.00 Build 0)  -->
<svg version="1.1" id="a" xmlns="http://www.w3.org/2000/svg" xmlns:xlink="http://www.w3.org/1999/xlink" x="0px" y="0px"
	 viewBox="0 0 64 64" style="enable-background:new 0 0 64 64;" xml:space="preserve">
<style type="text/css">
	.st0{fill:#E60512;}
	.st1{fill:#FFFFFF;}
</style>
<g>
	<path class="st0" d="M49.1,23.4c-0.4-1.5-1.6-2.8-3.2-3.2c-2.8-0.7-14-0.7-14-0.7s-11.2,0-14,0.7c-1.5,0.4-2.8,1.6-3.2,3.2
		c-0.7,2.8-0.7,8.6-0.7,8.6s0,5.8,0.7,8.6c0.4,1.5,1.6,2.8,3.2,3.2c2.8,0.7,14,0.7,14,0.7s11.2,0,14-0.7c1.5-0.4,2.8-1.6,3.2-3.2
		c0.7-2.8,0.7-8.6,0.7-8.6S49.9,26.2,49.1,23.4L49.1,23.4z"/>
	<polygon class="st1" points="28.4,37.4 37.7,32 28.4,26.6 28.4,37.4 	"/>
</g>
</svg>
