<?xml version="1.0" encoding="UTF-8"?><svg id="_レイヤー_1" xmlns="http://www.w3.org/2000/svg" viewBox="0 0 64 64"><defs><style>.cls-1{fill:#fff;}.cls-2{fill:#3ea8ff;}</style></defs><rect class="cls-2" x="-3.2" y="-3.2" width="70.4" height="70.4"/><g><path class="cls-1" d="M16.35212,47.69504h6.64547c.35182,0,.66455-.19546,.86-.46909l18.2946-30.06099c.23455-.39091-.03909-.86-.50818-.86h-6.29365c-.31273,0-.58637,.15636-.74273,.43l-18.56823,30.41281c-.11727,.23455,.03909,.54727,.31273,.54727Z"/><path class="cls-1" d="M39.25946,47.22595l8.63911-13.87731c.27364-.43-.03909-.97728-.54727-.97728h-6.25456c-.23455,0-.46909,.11727-.58637,.31273l-8.87366,14.19004c-.23455,.35182,.03909,.82091,.46909,.82091h6.37184c.31273,0,.62546-.15636,.78182-.46909Z"/></g></svg>