<?xml version="1.0" encoding="utf-8"?>
<!-- Generator: Adobe Illustrator 27.7.0, SVG Export Plug-In . SVG Version: 6.00 Build 0)  -->
<svg version="1.1" id="_レイヤー_1" xmlns="http://www.w3.org/2000/svg" xmlns:xlink="http://www.w3.org/1999/xlink" x="0px"
	 y="0px" viewBox="0 0 64 64" style="enable-background:new 0 0 64 64;" xml:space="preserve">
<style type="text/css">
	.st0{fill:#FFFFFF;}
</style>
<g>
	<path class="st0" d="M18.6,45.6h5.8c0.4,0,0.6-0.1,0.7-0.5l15.7-26c0.1-0.4,0-0.7-0.5-0.7h-5.4c-0.2,0-0.5,0.1-0.6,0.4L18.2,45.2
		C18.2,45.5,18.3,45.6,18.6,45.6L18.6,45.6z"/>
	<path class="st0" d="M38.4,45.2l7.4-12c0.2-0.4,0-0.8-0.5-0.8h-5.5c-0.1,0-0.5,0.1-0.5,0.2l-7.6,12.2c-0.1,0.4,0,0.7,0.5,0.7h5.5
		C37.9,45.6,38.2,45.5,38.4,45.2z"/>
</g>
</svg>
