<?xml version="1.0" encoding="utf-8"?>
<!-- Generator: Adobe Illustrator 27.0.1, SVG Export Plug-In . SVG Version: 6.00 Build 0)  -->
<svg version="1.1" id="_レイヤー_1" xmlns="http://www.w3.org/2000/svg" xmlns:xlink="http://www.w3.org/1999/xlink" x="0px"
	 y="0px" viewBox="0 0 64 64" style="enable-background:new 0 0 64 64;" xml:space="preserve">
<style type="text/css">
	.st0{fill:#3EA8FF;}
</style>
<rect x="119.1" y="-3.2" class="st0" width="70.4" height="70.4"/>
<g>
	<path class="st0" d="M16.4,47.7H23c0.4,0,0.7-0.2,0.9-0.5l18.3-30.1c0.2-0.4,0-0.9-0.5-0.9h-6.3c-0.3,0-0.6,0.2-0.7,0.4L16,47.1
		C15.9,47.4,16.1,47.7,16.4,47.7L16.4,47.7z"/>
	<path class="st0" d="M39.3,47.2l8.6-13.9c0.3-0.4,0-1-0.5-1h-6.3c-0.2,0-0.5,0.1-0.6,0.3l-8.9,14.2c-0.2,0.4,0,0.8,0.5,0.8h6.4
		C38.8,47.7,39.1,47.5,39.3,47.2z"/>
</g>
</svg>
