<svg
  xmlns="http://www.w3.org/2000/svg"
  xmlns:xlink="http://www.w3.org/1999/xlink"
  width="12.583"
  height="12.583"
  viewBox="0 0 12.583 12.583"
>
  <defs>
    <style>
      .a {
        fill: #00d4d4;
      }
    </style>
  </defs>
  <g transform="translate(0 0)">
    <g class="b">
      <path
        class="a"
        d="M8.763,12.583H1.981A1.983,1.983,0,0,1,0,10.6V3.828A1.982,1.982,0,0,1,1.981,1.847h3.7a.75.75,0,1,1,0,1.5h-3.7a.481.481,0,0,0-.481.481V10.6a.483.483,0,0,0,.481.486H8.75A.48.48,0,0,0,9.1,10.94a.474.474,0,0,0,.14-.34V6.907a.75.75,0,1,1,1.5,0V10.6a1.982,1.982,0,0,1-1.973,1.986"
      />
      <path
        class="a"
        d="M11.833,5.194a.75.75,0,0,1-.75-.75V1.5H8.139a.75.75,0,0,1,0-1.5h3.694a.75.75,0,0,1,.75.75V4.444a.75.75,0,0,1-.75.75"
      />
      <path
        class="a"
        d="M5.06,8.273a.75.75,0,0,1-.53-1.28L11.3.22a.75.75,0,0,1,1.06,1.061L5.59,8.053a.744.744,0,0,1-.53.22"
      />
    </g>
  </g>
</svg>