<?xml version="1.0" encoding="utf-8"?>
<svg version="1.1" xmlns="http://www.w3.org/2000/svg" xmlns:xlink="http://www.w3.org/1999/xlink" x="0px"
	 y="0px" viewBox="0 0 16 16" style="enable-background:new 0 0 16 16;" xml:space="preserve">
<style type="text/css">
	.st0{fill:#FFFFFF;}
</style>
<path class="st0" d="M14.4,4.7c0,0.1,0,0.3,0,0.4c0,4.3-3.3,9.3-9.3,9.3c-1.9,0-3.6-0.5-5-1.5c0.3,0,0.5,0,0.8,0
	c1.5,0,2.9-0.5,4.1-1.4c-1.4,0-2.6-1-3.1-2.3c0.2,0,0.4,0.1,0.6,0.1c0.3,0,0.6,0,0.9-0.1C1.8,9,0.6,7.7,0.6,6.1v0
	c0.4,0.2,0.9,0.4,1.5,0.4C1.2,5.9,0.7,4.9,0.7,3.8c0-0.6,0.2-1.2,0.4-1.7c1.6,2,4,3.3,6.8,3.4C7.8,5.3,7.8,5,7.8,4.8
	c0-1.8,1.5-3.3,3.3-3.3c0.9,0,1.8,0.4,2.4,1c0.7-0.1,1.5-0.4,2.1-0.8c-0.2,0.8-0.8,1.4-1.4,1.8C14.8,3.5,15.4,3.3,16,3
	C15.6,3.7,15,4.3,14.4,4.7L14.4,4.7z"/>
</svg>
