<?xml version="1.0" encoding="UTF-8"?><svg xmlns="http://www.w3.org/2000/svg" version="1.1" viewBox="0 0 600 160.6"><defs><style>.dgdgdgdg{fill:#fff;}</style></defs><path class="dgdgdgdg" d="M43.2,42.4L0,85.6l64.4,64.4V0h-21.2v42.4ZM43.2,98.8l-13.2-13.2,13.2-13.2v26.4h0ZM75,101.7h28.9l-28.9,28.9v30l75-75L75,10.6v91.1ZM96.2,61.8l18.6,18.6h-18.6v-18.6ZM193.2,42.4l-43.2,43.2,64.4,64.4V0h-21.2v42.4ZM193.2,98.8l-13.2-13.2,13.2-13.2v26.4h0ZM343.2,42.4l-43.2,43.2,64.4,64.4V0h-21.2v42.4ZM343.2,98.8l-13.2-13.2,13.2-13.2v26.4h0ZM225,101.7h28.9l-28.9,28.9v30l75-75L225,10.6v91.1ZM246.2,61.8l18.6,18.6h-18.6v-18.6ZM493.2,42.4l-43.2,43.2,64.4,64.4V0h-21.2v42.4ZM493.2,98.8l-13.2-13.2,13.2-13.2v26.4h0ZM375,101.7h28.9l-28.9,28.9v30l75-75L375,10.6v91.1ZM396.2,61.8l18.6,18.6h-18.6v-18.6ZM525,10.6v91.1h28.9l-28.9,28.9v30l75-75-75-75ZM546.2,80.5v-18.6l18.6,18.6h-18.6Z"/></svg>