<?xml version="1.0" encoding="UTF-8"?>
<svg id="_レイヤー_1" data-name="レイヤー 1" xmlns="http://www.w3.org/2000/svg" viewBox="0 0 565.68 151.42">
  <defs>
    <style>
      .cls-1 {
        fill: #ffffff;
      }
    </style>
  </defs>
  <path class="cls-1" d="M90.71,58.28l17.57,17.57h-17.57v-17.57ZM70.71,95.86h27.28l-27.28,27.28v28.28l70.71-70.71L70.71,10v85.86ZM232.13,58.28l17.57,17.57h-17.57v-17.57ZM212.13,95.86h27.28l-27.28,27.28v28.28l70.71-70.71L212.13,10v85.86ZM373.55,58.28l17.58,17.57h-17.58v-17.57ZM353.55,95.86h27.28l-27.28,27.28v28.28l70.71-70.71L353.55,10v85.86ZM514.97,58.28l17.57,17.57h-17.57v-17.57ZM494.97,95.86h27.28l-27.28,27.28v28.28l70.71-70.71L494.97,10v85.86ZM28.28,80.71l12.43-12.43v24.85l-12.43-12.43ZM40.71,0v40L0,80.71l60.71,60.71V0h-20ZM169.71,80.71l12.43-12.43v24.85l-12.43-12.43ZM182.13,0v40l-40.71,40.71,60.71,60.71V0h-20ZM311.13,80.71l12.43-12.43v24.85l-12.43-12.43ZM323.55,0v40l-40.71,40.71,60.71,60.71V0h-20ZM452.55,80.71l12.43-12.43v24.85l-12.43-12.43ZM464.97,0v40l-40.71,40.71,60.71,60.71V0h-20Z"/>
</svg>