<svg xmlns="http://www.w3.org/2000/svg" viewBox="0 0 600 149.3"><g id="レイヤー_2" data-name="レイヤー 2"><path id="d1" d="M40.8,39.4,0,80.2l57.3,57.3V0H40.8Zm0,58.3L23.3,80.2,40.8,62.7Z"/><path id="g1" d="M70.8,11.1v78h36.9L70.8,126v23.3l69.1-69.1ZM87.3,72.6V50.9L109,72.6Z"/><path id="d2" d="M194.2,39.4,153.4,80.2l57.3,57.3V0H194.2Zm0,58.3L176.7,80.2l17.5-17.5Z"/><path id="g2" d="M224.2,11.1v78H261L224.2,126v23.3l69.1-69.1Zm16.5,61.5V50.9l21.7,21.7Z"/><path id="d3" d="M347.6,39.4,306.8,80.2l57.3,57.3V0H347.6Zm0,58.3L330.1,80.2l17.5-17.5Z"/><path id="g3" d="M377.6,11.1v78h36.9L377.6,126v23.3l69.1-69.1ZM394,72.6V50.9l21.7,21.7Z"/><path id="d4" d="M500.9,39.4,460.1,80.2l57.3,57.3V0H500.9V39.4Zm0,58.3L483.4,80.2l17.5-17.5Z"/><path id="g4" d="M530.9,11.1v78h36.9L530.9,126v23.3L600,80.2Zm16.5,61.5V50.9l21.7,21.7Z"/></g></svg>