<svg
  xmlns="http://www.w3.org/2000/svg"
  width="15.24"
  height="18"
  viewbox="0 0 15.24 18"
>
  <defs>
    <style>
      .a,
      .b,
      .c {
        fill: #fff;
      }
      .a {
        opacity: 0.68;
      }
      .b {
        opacity: 0.7;
      }
    </style>
  </defs>
  <g transform="translate(1203 -5108)">
    <path
      class="a"
      d="M14.212,5.061a3.556,3.556,0,0,0-.76-3.213C12.618.917,11.1.5,9.185.5H3.593a.793.793,0,0,0-.785.687L.479,15.925a.479.479,0,0,0,.466.564H4.4l-.245,1.52a.419.419,0,0,0,.417.49H7.468a.688.688,0,0,0,.687-.589l.025-.147.54-3.482.025-.2A.688.688,0,0,1,9.43,13.5h.49c2.82,0,5.027-1.153,5.665-4.463A3.769,3.769,0,0,0,15,5.7a2.8,2.8,0,0,0-.785-.638h0"
      transform="translate(-1203.472 5107.5)"
    />
    <path
      class="b"
      d="M14.212,5.061a3.556,3.556,0,0,0-.76-3.213C12.618.917,11.1.5,9.185.5H3.593a.793.793,0,0,0-.785.687L.479,15.925a.479.479,0,0,0,.466.564H4.4l.858-5.518-.025.172a.793.793,0,0,1,.785-.687H7.664c3.213,0,5.738-1.3,6.474-5.1a2.545,2.545,0,0,0,.074-.294"
      transform="translate(-1203.472 5107.5)"
    />
    <path
      class="c"
      d="M6.193,5.086a.716.716,0,0,1,.392-.515A.653.653,0,0,1,6.879,4.5h4.39a8.948,8.948,0,0,1,1.447.1l.368.074a1.406,1.406,0,0,1,.343.1c.049.025.123.025.172.049a4.564,4.564,0,0,1,.613.245,3.556,3.556,0,0,0-.76-3.213C12.618.917,11.1.5,9.185.5H3.593a.793.793,0,0,0-.785.687L.479,15.925a.479.479,0,0,0,.466.564H4.4l.858-5.518Z"
      transform="translate(-1203.472 5107.5)"
    />
  </g>
</svg>