<?xml version="1.0" encoding="utf-8"?>
<svg
  version="1.1"
  xmlns="http://www.w3.org/2000/svg"
  xmlns:xlink="http://www.w3.org/1999/xlink"
  x="0px"
  y="0px"
  viewBox="0 0 600 149.3"
  style="enable-background: new 0 0 600 149.3"
  xml:space="preserve"
>
  <style>
    .st0 {
      fill: #ffffff
    }
  </style>
  <g>
    <path
      class="st0" id="d1"
      d="M40.8,39.4L0,80.2l57.3,57.3V0H40.8V39.4z M40.8,97.7L23.3,80.2l17.5-17.5V97.7z"
    />
    <path
      class="st0" id="g1"
      d="M70.8,11.1l0,78h36.9L70.8,126v1.7v21.6l69.1-69.1L70.8,11.1z M87.3,72.6V50.9L109,72.6L87.3,72.6z"
    />
    <path
      class="st0" id="d2"
      d="M194.2,39.4l-40.8,40.8l57.3,57.3V0h-16.5V39.4z M194.2,97.7l-17.5-17.5l17.5-17.5V97.7z"
    />
    <path
      class="st0" id="g2"
      d="M224.2,11.1l0,78H261L224.2,126v1.7v21.6l69.1-69.1L224.2,11.1z M240.7,72.6V50.9l21.7,21.7L240.7,72.6z"
    />
    <path
      class="st0" id="d3"
      d="M347.6,39.4l-40.8,40.8l57.3,57.3V0h-16.5V39.4z M347.6,97.7l-17.5-17.5l17.5-17.5V97.7z"
    />
    <path
      class="st0" id="g3"
      d="M377.6,11.1l0,78h36.9L377.6,126v1.7v21.6l69.1-69.1L377.6,11.1z M394,72.6V50.9l21.7,21.7L394,72.6z"
    />
    <path
      class="st0" id="d4"
      d="M500.9,39.4l-40.8,40.8l57.3,57.3V0h-16.5V39.4z M500.9,97.7l-17.5-17.5l17.5-17.5V97.7z"
    />
    <path
      class="st0" id="g4"
      d="M530.9,11.1v78h36.9L530.9,126v1.7v21.6L600,80.2L530.9,11.1z M547.4,72.6V50.9l21.7,21.7L547.4,72.6z"
    />
  </g>  
</svg>
