<svg
  xmlns="http://www.w3.org/2000/svg"
  width="150"
  height="41.437"
  viewbox="0 0 150 41.437"
>
  <defs>
    <style>
      .a {
        fill: #fff;
      }
    </style>
  </defs>
  <g transform="translate(3843.067 -297.377)">
    <g transform="translate(-3804.722 301.498)">
      <path
        class="a"
        d="M-3509.271,342l-10.2,10.2,14.319,14.319V332.154h-4.121Zm0,14.569-4.371-4.371,4.371-4.371Z"
        transform="translate(3519.469 -332.154)"
      />
      <path
        class="a"
        d="M-3370.112,355.62v19.492h9.216l-9.216,9.216v5.828l17.268-17.268Zm4.121,15.371v-5.423l5.423,5.423Z"
        transform="translate(3387.81 -352.839)"
      />
    </g>
    <g transform="translate(-3766.377 301.498)">
      <path
        class="a"
        d="M-3185.674,342l-10.2,10.2,14.319,14.319V332.154h-4.121Zm0,14.569-4.371-4.371,4.371-4.371Z"
        transform="translate(3195.872 -332.154)"
      />
      <path
        class="a"
        d="M-3046.514,355.62v19.492h9.216l-9.216,9.216v5.828l17.268-17.268Zm4.121,15.371v-5.423l5.423,5.423Z"
        transform="translate(3064.212 -352.839)"
      />
    </g>
    <g transform="translate(-3728.033 301.498)">
      <path
        class="a"
        d="M-2862.076,342l-10.2,10.2,14.319,14.319V332.154h-4.121Zm0,14.569-4.371-4.371,4.371-4.371Z"
        transform="translate(2872.274 -332.154)"
      />
      <path
        class="a"
        d="M-2722.916,355.62v19.492h9.216l-9.216,9.216v5.828l17.268-17.268Zm4.121,15.371v-5.423l5.423,5.423Z"
        transform="translate(2740.614 -352.839)"
      />
    </g>
    <g transform="translate(-3843.067 297.377)">
      <path
        class="a"
        d="M-3693.71,355.62v19.492h9.216l-9.216,9.216v5.828l17.268-17.268Zm4.121,15.371v-5.423l5.423,5.423Z"
        transform="translate(3711.408 -348.718)"
      />
      <path
        class="a"
        d="M-3832.856,297.377l-.013,13.971-10.2,10.2,14.319,14.319.013-38.488Zm-.013,28.54-4.371-4.371,4.371-4.371Z"
        transform="translate(3843.067 -297.377)"
      />
    </g>
  </g>
</svg>