<svg
  xmlns="http://www.w3.org/2000/svg"
  width="600"
  height="165.747"
  viewbox="0 0 600 165.747"
>
  <defs>
    <style>
      .a {
        fill: #00d4d4;
      }
    </style>
  </defs>
  <g transform="translate(-1166.801 -450.771)">
    <g transform="translate(1320.18 467.255)">
      <path
        d="M1761.394,549.688,1720.6,590.481l57.276,57.276V510.288h-16.483Zm0,58.276-17.483-17.483L1761.394,573Z"
        transform="translate(-1720.601 -510.288)"
      />
      <path
        d="M1976.209,550.449v77.967h36.863l-36.863,36.863v23.31l69.071-69.07Zm16.483,61.484V590.242l21.691,21.691Z"
        transform="translate(-1905.416 -539.326)"
      />
    </g>
    <g transform="translate(1473.559 467.255)">
      <path
        d="M2315.194,549.688,2274.4,590.481l57.277,57.276V510.288h-16.483Zm0,58.276-17.483-17.483L2315.194,573Z"
        transform="translate(-2274.401 -510.288)"
      />
      <path
        d="M2530.009,550.449v77.967h36.863l-36.863,36.863v23.31l69.07-69.07Zm16.482,61.484V590.242l21.691,21.691Z"
        transform="translate(-2459.217 -539.326)"
      />
    </g>
    <g transform="translate(1626.938 467.255)">
      <path
        d="M2868.994,549.688,2828.2,590.481l57.277,57.276V510.288h-16.483Zm0,58.276-17.483-17.483L2868.994,573Z"
        transform="translate(-2828.201 -510.288)"
      />
      <path
        d="M3083.809,550.449v77.967h36.863l-36.863,36.863v23.31l69.07-69.07Zm16.482,61.484V590.242l21.691,21.691Z"
        transform="translate(-3013.017 -539.326)"
      />
    </g>
    <g transform="translate(1166.801 450.771)">
      <path
        class="a"
        d="M1207.594,549.688,1166.8,590.481l57.276,57.276V510.288h-16.483Zm0,58.276-17.483-17.483L1207.594,573Z"
        transform="translate(-1166.801 -493.804)"
      />
      <path
        class="a"
        d="M1422.409,550.449v77.967h36.863l-36.863,36.863v23.31l69.071-69.07Zm16.483,61.484V590.242l21.691,21.691Z"
        transform="translate(-1351.616 -522.842)"
      />
      <rect
        class="a"
        width="16.484"
        height="16.484"
        transform="translate(40.845 0)"
      />
    </g>
  </g>
</svg>