<?xml version="1.0" encoding="UTF-8"?><svg id="a" xmlns="http://www.w3.org/2000/svg" viewBox="0 0 64 64"><defs><style>.b{fill:#fff;fill-rule:evenodd;}</style></defs><rect x="-3.2" y="-3.2" width="70.4" height="70.4"/><path class="b" d="M32,16.39c-8.84,0-16,7.16-16,16,0,7.07,4.58,13.07,10.94,15.18,.8,.15,1.09-.35,1.09-.77,0-.38-.01-1.39-.02-2.72-4.45,.97-5.39-2.15-5.39-2.15-.73-1.85-1.78-2.34-1.78-2.34-1.45-.99,.11-.97,.11-.97,1.61,.11,2.45,1.65,2.45,1.65,1.43,2.44,3.75,1.74,4.66,1.33,.15-1.03,.56-1.74,1.02-2.14-3.55-.4-7.29-1.78-7.29-7.91,0-1.75,.62-3.17,1.65-4.29-.17-.4-.71-2.03,.16-4.23,0,0,1.34-.43,4.4,1.64,1.28-.36,2.65-.53,4.01-.54,1.36,0,2.73,.18,4.01,.54,3.05-2.07,4.4-1.64,4.4-1.64,.87,2.2,.32,3.83,.16,4.23,1.03,1.12,1.65,2.55,1.65,4.29,0,6.15-3.74,7.5-7.31,7.9,.57,.49,1.09,1.47,1.09,2.96,0,2.14-.02,3.86-.02,4.39,0,.43,.29,.93,1.1,.77,6.35-2.12,10.93-8.11,10.93-15.18,0-8.84-7.16-16-16-16"/></svg>