<?xml version="1.0" encoding="UTF-8"?><svg id="a" xmlns="http://www.w3.org/2000/svg" viewBox="0 0 64 64"><defs><style>.b{fill:#fff;}.c{fill:#1da1f2;}</style></defs><rect class="c" x="-3.2" y="-3.2" width="70.4" height="70.4"/><path class="b" d="M48,22.08c-1.18,.52-2.44,.87-3.77,1.03,1.36-.81,2.4-2.1,2.89-3.63-1.27,.75-2.67,1.3-4.17,1.59-1.2-1.27-2.9-2.07-4.79-2.07-3.62,0-6.56,2.94-6.56,6.57,0,.51,.06,1.01,.17,1.49-5.46-.27-10.29-2.89-13.53-6.86-.56,.97-.89,2.1-.89,3.3,0,2.28,1.16,4.29,2.92,5.47-1.08-.04-2.09-.33-2.97-.82v.08c0,3.18,2.26,5.83,5.27,6.44-.55,.15-1.13,.23-1.73,.23-.42,0-.84-.04-1.24-.12,.84,2.61,3.26,4.51,6.13,4.56-2.25,1.76-5.08,2.81-8.15,2.81-.53,0-1.05-.03-1.57-.09,2.91,1.86,6.36,2.95,10.06,2.95,12.08,0,18.68-10,18.68-18.68,0-.28,0-.57-.02-.85,1.28-.93,2.4-2.08,3.27-3.4h0Z"/></svg>