<?xml version="1.0" encoding="UTF-8"?><svg id="a" xmlns="http://www.w3.org/2000/svg" viewBox="0 0 64 64"><defs><style>.b{fill:#fff;}.c{fill:red;}</style></defs><rect class="c" x="-3.2" y="-3.2" width="70.4" height="70.4"/><path class="b" d="M47.33,24.3c-.37-1.38-1.45-2.46-2.83-2.83-2.49-.67-12.5-.67-12.5-.67,0,0-10.01,0-12.5,.67-1.38,.37-2.46,1.45-2.83,2.83-.67,2.49-.67,7.7-.67,7.7,0,0,0,5.21,.67,7.7,.37,1.38,1.45,2.46,2.83,2.83,2.49,.67,12.5,.67,12.5,.67,0,0,10.01,0,12.5-.67,1.38-.37,2.46-1.45,2.83-2.83,.67-2.49,.67-7.7,.67-7.7,0,0,0-5.21-.67-7.7Zm-18.53,12.5v-9.6l8.31,4.8-8.31,4.8Z"/></svg>