<?xml version="1.0" encoding="UTF-8"?>
<!--Generator: Apple Native CoreSVG 175.5-->
<svg version="1.1" xmlns="http://www.w3.org/2000/svg" xmlns:xlink="http://www.w3.org/1999/xlink" width="14.2188" height="19.2969">
 <g>
  <rect height="19.2969" opacity="0" width="14.2188" x="0" y="0"/>
  <path d="M0 10.1797C0 14.1172 3.17578 17.3008 7.11328 17.3008C11.0469 17.3008 14.2188 14.1172 14.2188 10.1797C14.2188 6.23828 11.1016 3.10547 7.17578 3.10547C6.89453 3.10547 6.625 3.13281 6.38281 3.17578L7.9375 1.64844C8.10938 1.47266 8.21094 1.26953 8.21094 0.996094C8.21094 0.441406 7.78125 0 7.24219 0C6.96484 0 6.73828 0.09375 6.55859 0.285156L3.37109 3.53125C3.16406 3.73047 3.05859 3.99219 3.05859 4.25781C3.05859 4.53906 3.16016 4.78125 3.37109 4.98828L6.55859 8.21875C6.73828 8.39844 6.96484 8.48828 7.23828 8.48828C7.78125 8.48828 8.21094 8.0625 8.21094 7.51172C8.21094 7.23828 8.10938 7.03516 7.93359 6.85938L6.17969 5.12109C6.46875 5.06641 6.80859 5.03906 7.17578 5.03906C9.99219 5.03906 12.2031 7.29688 12.2031 10.1797C12.2031 13.0039 9.9375 15.2852 7.11328 15.2852C4.28516 15.2852 2.00781 13.0039 2.00781 10.1797C2.00781 9.57031 1.60547 9.14844 1.01953 9.14844C0.425781 9.14844 0 9.57031 0 10.1797Z" fill="#444444" fill-opacity="0.85"/>
 </g>
</svg>
