<?xml version="1.0" encoding="UTF-8"?>
<!--Generator: Apple Native CoreSVG 175.5-->
<svg version="1.1" xmlns="http://www.w3.org/2000/svg" xmlns:xlink="http://www.w3.org/1999/xlink" width="20.5692" height="14.6856">
 <g>
  <rect height="14.6856" opacity="0" width="20.5692" x="0" y="0"/>
  <path d="M7.42074 1.76856L19.9754 1.76856C20.3035 1.76856 20.5692 1.51075 20.5692 1.17481C20.5692 0.84669 20.3035 0.588877 19.9754 0.588877L7.42074 0.588877C7.0848 0.588877 6.82699 0.84669 6.82699 1.17481C6.82699 1.51075 7.0848 1.76856 7.42074 1.76856ZM7.42074 5.86231L19.9754 5.86231C20.3035 5.86231 20.5692 5.6045 20.5692 5.26856C20.5692 4.94044 20.3035 4.68263 19.9754 4.68263L7.42074 4.68263C7.0848 4.68263 6.82699 4.94044 6.82699 5.26856C6.82699 5.6045 7.0848 5.86231 7.42074 5.86231ZM7.42074 9.95606L19.9754 9.95606C20.3035 9.95606 20.5692 9.69044 20.5692 9.36231C20.5692 9.03419 20.3035 8.77638 19.9754 8.77638L7.42074 8.77638C7.0848 8.77638 6.82699 9.03419 6.82699 9.36231C6.82699 9.69044 7.0848 9.95606 7.42074 9.95606ZM7.42074 14.042L14.9676 14.042C15.2957 14.042 15.5614 13.7842 15.5614 13.4561C15.5614 13.1279 15.2957 12.8623 14.9676 12.8623L7.42074 12.8623C7.0848 12.8623 6.82699 13.1279 6.82699 13.4561C6.82699 13.7842 7.0848 14.042 7.42074 14.042ZM2.53792 14.417L4.10042 12.3233C4.41292 11.9014 4.24886 11.3701 3.69417 11.3701L2.5848 11.3701L2.5848 3.25294L3.69417 3.25294C4.23324 3.25294 4.42855 2.73731 4.10042 2.29981L2.53792 0.213877C2.32699-0.0751853 1.92074-0.0673728 1.71761 0.213877L0.155112 2.29981C-0.1652 2.73731 0.0301124 3.25294 0.561362 3.25294L1.67855 3.25294L1.67855 11.3701L0.561362 11.3701C0.0301124 11.3701-0.1652 11.8858 0.155112 12.3233L1.71761 14.417C1.92855 14.6983 2.32699 14.6983 2.53792 14.417Z" fill="#444444" fill-opacity="0.85"/>
 </g>
</svg>
