<?xml version="1.0" encoding="UTF-8"?>
<!--Generator: Apple Native CoreSVG 175.5-->
<svg version="1.1" xmlns="http://www.w3.org/2000/svg" xmlns:xlink="http://www.w3.org/1999/xlink" width="15.3997" height="18.9181">
 <g>
  <rect height="18.9181" opacity="0" width="15.3997" x="0" y="0"/>
  <path d="M0.301465 4.2212C-0.105799 4.61036-0.0951425 5.20757 0.301465 5.58607L4.32987 9.51612C4.50528 9.69152 4.76554 9.8023 4.99704 9.8023C5.53283 9.8023 5.90849 9.42381 5.90849 8.89085C5.90849 8.64089 5.82079 8.42501 5.64326 8.25494L3.98344 6.65726L2.95514 5.76713L4.5263 5.8229L14.4818 5.8229C15.0098 5.8229 15.3958 5.43695 15.3958 4.90364C15.3958 4.37565 15.0098 3.9897 14.4818 3.9897L4.5263 3.9897L2.95514 4.04014L3.98344 3.15534L5.64326 1.55234C5.82079 1.38226 5.90849 1.17171 5.90849 0.916417C5.90849 0.383467 5.53283 0.0102968 4.99704 0.0102968C4.76554 0.0102968 4.50528 0.115749 4.32987 0.291155ZM15.1021 14.7047C15.5016 14.3155 15.4963 13.7183 15.1021 13.337L11.0737 9.40442C10.8983 9.23434 10.6356 9.12356 10.4012 9.12356C9.86295 9.12356 9.49511 9.49922 9.49511 10.0297C9.49511 10.285 9.57748 10.5009 9.75253 10.6656L11.4202 12.2686L12.4485 13.1587L10.8773 13.103L0.919274 13.103C0.391292 13.103 1.32423e-05 13.4889 1.32423e-05 14.0169C1.32423e-05 14.5502 0.391292 14.9386 0.919274 14.9386L10.8773 14.9386L12.4485 14.8829L11.4202 15.7705L9.75253 17.3707C9.57748 17.5408 9.49511 17.7566 9.49511 18.0119C9.49511 18.5424 9.86295 18.9181 10.4012 18.9181C10.6356 18.9181 10.8983 18.8073 11.0737 18.6372Z" fill="#444444" fill-opacity="0.85"/>
 </g>
</svg>
