<?xml version="1.0" encoding="UTF-8"?>
<!--Generator: Apple Native CoreSVG 175.5-->
<svg version="1.1"
     xmlns="http://www.w3.org/2000/svg"
     xmlns:xlink="http://www.w3.org/1999/xlink"
     width="15.8438"
     height="10.2578">
  <g>
    <rect height="10.2578"
          opacity="0"
          width="15.8438"
          x="0"
          y="0" />
    <path d="M0 5.11719C0 5.40625 0.117188 5.69922 0.320312 5.90234L4.375 9.91016C4.58594 10.1211 4.86719 10.2383 5.14062 10.2383C5.75391 10.2383 6.17188 9.80469 6.17188 9.21875C6.17188 8.89453 6.03516 8.66016 5.83984 8.46875L4.37891 7.05469L3.25781 6.10547L4.92188 6.18359L10.918 6.18359L12.582 6.10547L11.4609 7.05469L10.0039 8.46875C9.80859 8.66016 9.67188 8.89453 9.67188 9.21875C9.67188 9.80469 10.0898 10.2383 10.7031 10.2383C10.9766 10.2383 11.2578 10.1211 11.4688 9.91016L15.5234 5.90234C15.7266 5.69922 15.8438 5.40625 15.8438 5.11719C15.8438 4.82812 15.7266 4.52734 15.5234 4.33203L11.4688 0.328125C11.2578 0.117188 10.9766 0 10.7031 0C10.0898 0 9.67188 0.433594 9.67188 1.01953C9.67188 1.34375 9.80859 1.57812 10.0039 1.76953L11.4609 3.18359L12.582 4.125L10.918 4.05078L4.92188 4.05078L3.25781 4.125L4.37891 3.18359L5.83984 1.76953C6.03516 1.57812 6.17188 1.34375 6.17188 1.01953C6.17188 0.433594 5.75391 0 5.14062 0C4.86719 0 4.58594 0.117188 4.375 0.328125L0.320312 4.33203C0.117188 4.52734 0 4.82812 0 5.11719Z"
          fill="#444444" />
  </g>
</svg>