<?xml version="1.0" encoding="UTF-8"?>
<!--Generator: Apple Native CoreSVG 175.5-->
<svg version="1.1"
     xmlns="http://www.w3.org/2000/svg"
     xmlns:xlink="http://www.w3.org/1999/xlink"
     width="10.2383"
     height="15.8594">
  <g>
    <rect height="15.8594"
          opacity="0"
          width="10.2383"
          x="0"
          y="0" />
    <path d="M5.11719 15.8398C5.40234 15.8398 5.69922 15.7266 5.90234 15.5195L9.91016 11.4648C10.1211 11.2578 10.2383 10.9727 10.2383 10.7031C10.2383 10.082 9.80469 9.66797 9.21875 9.66797C8.89844 9.66797 8.66016 9.80469 8.46875 10.0039L7.05469 11.457L6.10547 12.582L6.17969 10.918L6.17969 4.92188L6.10547 3.25391L7.05469 4.37891L8.46875 5.83203C8.66016 6.03125 8.89844 6.16797 9.21875 6.16797C9.80469 6.16797 10.2383 5.75391 10.2383 5.13281C10.2383 4.86328 10.1211 4.58203 9.91016 4.37109L5.90234 0.316406C5.69922 0.109375 5.40234 0 5.11719 0C4.82812 0 4.52734 0.109375 4.33203 0.316406L0.332031 4.37109C0.121094 4.58203 0 4.86328 0 5.13281C0 5.75391 0.433594 6.16797 1.01953 6.16797C1.34375 6.16797 1.58203 6.03125 1.76953 5.83203L3.18359 4.37891L4.125 3.25391L4.05469 4.92188L4.05469 10.918L4.125 12.582L3.18359 11.457L1.76953 10.0039C1.58203 9.80469 1.34375 9.66797 1.01953 9.66797C0.433594 9.66797 0 10.082 0 10.7031C0 10.9727 0.121094 11.2578 0.332031 11.4648L4.33203 15.5195C4.52734 15.7266 4.82812 15.8398 5.11719 15.8398Z"
          fill="#444444" />
  </g>
</svg>