<?xml version="1.0" encoding="UTF-8"?>
<!--Generator: Apple Native CoreSVG 175.5-->
<svg version="1.1" xmlns="http://www.w3.org/2000/svg" xmlns:xlink="http://www.w3.org/1999/xlink" width="21.4167" height="15.2483">
 <g>
  <rect height="15.2483" opacity="0" width="21.4167" x="0" y="0"/>
  <path d="M7.81113 2.18655L20.6292 2.18655C21.0666 2.18655 21.4167 1.8244 21.4167 1.3866C21.4167 0.946683 21.0691 0.591982 20.6292 0.591982L7.81113 0.591982C7.36837 0.591982 7.02361 0.951652 7.02361 1.3866C7.02361 1.81694 7.37085 2.18655 7.81113 2.18655ZM7.81113 6.28279L20.6292 6.28279C21.0666 6.28279 21.4167 5.91815 21.4167 5.48035C21.4167 5.04043 21.0691 4.68573 20.6292 4.68573L7.81113 4.68573C7.36837 4.68573 7.02361 5.04789 7.02361 5.48035C7.02361 5.91318 7.37085 6.28279 7.81113 6.28279ZM7.81113 10.3815L20.6292 10.3815C21.0666 10.3815 21.4167 10.0115 21.4167 9.57907C21.4167 9.13915 21.0691 8.78445 20.6292 8.78445L7.81113 8.78445C7.36837 8.78445 7.02361 9.14412 7.02361 9.57907C7.02361 10.0041 7.37085 10.3815 7.81113 10.3815ZM7.81113 14.4699L15.6512 14.4699C16.0886 14.4699 16.4387 14.1053 16.4387 13.6753C16.4387 13.2329 16.0911 12.8729 15.6512 12.8729L7.81113 12.8729C7.36837 12.8729 7.02361 13.2404 7.02361 13.6753C7.02361 14.1003 7.37085 14.4699 7.81113 14.4699ZM2.71467 14.8052L4.37406 12.6071C4.71885 12.1479 4.52746 11.567 3.93054 11.567L2.85346 11.567L2.85346 3.45727L3.93054 3.45727C4.51681 3.45727 4.72951 2.88948 4.37406 2.41968L2.71467 0.226919C2.48634-0.0795334 2.05525-0.0717209 1.83225 0.226919L0.172859 2.41968C-0.182234 2.89445 0.030469 3.45727 0.621343 3.45727L1.69133 3.45727L1.69133 11.567L0.621343 11.567C0.030469 11.567-0.182234 12.1323 0.172859 12.6071L1.83225 14.8052C2.06058 15.1038 2.48634 15.1063 2.71467 14.8052Z" fill="#444444" fill-opacity="0.85"/>
 </g>
</svg>
