<?xml version="1.0" encoding="UTF-8"?>
<!--Generator: Apple Native CoreSVG 175.5-->
<!DOCTYPE svg>
<svg version="1.1" xmlns="http://www.w3.org/2000/svg" xmlns:xlink="http://www.w3.org/1999/xlink" width="15.0752" height="18.4609">
 <g>
  <rect height="18.4609" opacity="0" width="15.0752" x="0" y="0"/>
  <path d="M0.234412 4.16406C-0.0859009 4.46875-0.0702759 4.92188 0.234412 5.21094L4.25785 9.14844C4.39847 9.28906 4.6016 9.375 4.77347 9.375C5.18754 9.375 5.46879 9.08594 5.46879 8.67969C5.46879 8.48438 5.39847 8.32812 5.26566 8.19531L3.58597 6.57031L2.13285 5.3125L3.93754 5.39062L14.375 5.39062C14.7813 5.39062 15.0703 5.10156 15.0703 4.6875C15.0703 4.28125 14.7813 3.99219 14.375 3.99219L3.93754 3.99219L2.13285 4.0625L3.58597 2.8125L5.26566 1.17969C5.39847 1.04688 5.46879 0.898438 5.46879 0.695312C5.46879 0.289062 5.18754 0.0078125 4.77347 0.0078125C4.6016 0.0078125 4.39847 0.0859375 4.25785 0.226562ZM14.8438 14.3047C15.1563 14 15.1485 13.5469 14.8438 13.25L10.8203 9.3125C10.6797 9.17969 10.4766 9.09375 10.2969 9.09375C9.88285 9.09375 9.60941 9.375 9.60941 9.78125C9.60941 9.98438 9.67191 10.1406 9.80472 10.2656L11.4922 11.8984L12.9453 13.1562L11.1407 13.0781L0.703162 13.0781C0.296912 13.0781 3.66097e-05 13.3672 3.66097e-05 13.7734C3.66097e-05 14.1875 0.296912 14.4766 0.703162 14.4766L11.1407 14.4766L12.9453 14.3984L11.4922 15.6562L9.80472 17.2812C9.67191 17.4141 9.60941 17.5703 9.60941 17.7734C9.60941 18.1797 9.88285 18.4609 10.2969 18.4609C10.4766 18.4609 10.6797 18.375 10.8203 18.2422Z" fill="#444444" fill-opacity="0.85"/>
 </g>
</svg>
