<svg width="16"
     height="16"
     viewBox="0 0 16 16"
     fill="none"
     xmlns="http://www.w3.org/2000/svg">
      <path d="M1.08984 6.91406C1.71094 6.91406 2.17578 6.47265 2.17578 5.85156V5.46485L2.00391 3.48438L3.41797 4.98046L5.40234 6.98046C5.60547 7.1914 5.87891 7.29296 6.17188 7.29296C6.83984 7.29296 7.30469 6.82421 7.30469 6.15625C7.30469 5.86328 7.18359 5.60547 6.97656 5.39844L4.98047 3.41016L3.48047 1.99999L5.48828 2.17188H5.99219C6.61328 2.17188 7.05859 1.71093 7.05859 1.08984C7.05859 0.460937 6.61719 0 5.99219 0H1.67578C0.613281 0 0 0.613281 0 1.67188V5.85156C0 6.46875 0.46875 6.91406 1.08984 6.91406ZM9.30859 15.3125H13.6289C14.6875 15.3125 15.3047 14.6992 15.3047 13.6367V9.45704C15.3047 8.84376 14.8359 8.39843 14.2109 8.39843C13.5938 8.39843 13.125 8.83985 13.125 9.45704V9.84766L13.3008 11.8242L11.8828 10.3282L9.90234 8.33204C9.69922 8.1211 9.42188 8.01954 9.12891 8.01954C8.46484 8.01954 7.99609 8.48828 7.99609 9.15234C7.99609 9.44531 8.12109 9.70704 8.32812 9.91016L10.3203 11.8985L11.8242 13.3086L9.81641 13.1367H9.30859C8.69141 13.1367 8.24219 13.5977 8.24219 14.2227C8.24219 14.8516 8.69141 15.3125 9.30859 15.3125Z"
            fill="#444444" />
</svg>