<?xml version="1.0" encoding="UTF-8"?>
<svg version="1.1"
     xmlns="http://www.w3.org/2000/svg"
     xmlns:xlink="http://www.w3.org/1999/xlink"
     width="16.7383"
     height="20.2656">
  <g>
    <rect height="20.2656"
          opacity="0"
          width="16.7383"
          x="0"
          y="0" />
    <path d="M4 4.72266L6.01562 4.72266L6.01562 2.98047C6.01562 2.35547 6.32031 2.01562 6.98438 2.01562L9.94141 2.01562L9.94141 5.27734C9.94141 6.35156 10.5781 6.98438 11.6484 6.98438L14.7227 6.98438L14.7227 13.0781C14.7227 13.707 14.4141 14.043 13.75 14.043L12.4219 14.043L12.4219 16.0586L13.9961 16.0586C15.7695 16.0586 16.7383 15.0781 16.7383 13.3008L16.7383 7.37891C16.7383 6.23438 16.4922 5.49609 15.8203 4.80859L12.0117 0.921875C11.375 0.273438 10.5898 0 9.57812 0L6.74219 0C4.96875 0 4 0.976562 4 2.75781ZM11.4766 5.07422L11.4766 2.69531L14.1992 5.44922L11.8477 5.44922C11.5898 5.44922 11.4766 5.33203 11.4766 5.07422ZM0 17.5C0 19.2852 0.96875 20.2578 2.74219 20.2578L10 20.2578C11.7734 20.2578 12.7422 19.2773 12.7422 17.5L12.7422 11.6445C12.7422 10.5156 12.582 9.93359 11.875 9.21875L7.76562 5.06641C7.07422 4.36719 6.46094 4.19922 5.40234 4.19922L2.74219 4.19922C0.972656 4.19922 0 5.17188 0 6.95703ZM2.01562 17.2773L2.01562 7.17578C2.01562 6.55469 2.32031 6.21484 2.98828 6.21484L5.10156 6.21484L5.10156 10.0391C5.10156 11.3984 5.75 12.0391 7.09766 12.0391L10.7227 12.0391L10.7227 17.2773C10.7227 17.9062 10.4141 18.2422 9.75391 18.2422L2.98438 18.2422C2.32031 18.2422 2.01562 17.9062 2.01562 17.2773ZM7.25391 10.3867C6.91406 10.3867 6.75391 10.2305 6.75391 9.88672L6.75391 6.53516L10.5625 10.3867Z"
          fill="#444444" />
  </g>
</svg>