<?xml version="1.0" encoding="UTF-8"?>
<!--Generator: Apple Native CoreSVG 232.5-->
<!DOCTYPE svg PUBLIC "-//W3C//DTD SVG 1.1//EN" "http://www.w3.org/Graphics/SVG/1.1/DTD/svg11.dtd">
<svg version="1.1" xmlns="http://www.w3.org/2000/svg" xmlns:xlink="http://www.w3.org/1999/xlink" width="10.2612"
  height="12.9727">
  <g>
    <rect height="12.9727" opacity="0" width="10.2612" x="0" y="0" />
    <path
      d="M1.13818 12.9727L6.86426 12.9727C7.53662 12.9727 7.99805 12.5859 7.99805 11.9224C7.99805 11.2764 7.5542 10.8896 6.86865 10.8896L5.36133 10.8896L7.25537 2.0918L8.7627 2.0918C9.43506 2.0918 9.89209 1.70508 9.89209 1.0459C9.89209 0.395508 9.44824 0.00439453 8.76709 0.00439453L3.02344 0.00439453C2.34229 0.00439453 1.89404 0.395508 1.89404 1.0459C1.89404 1.70508 2.35547 2.0918 3.02783 2.0918L4.53516 2.0918L2.64111 10.8896L1.13379 10.8896C0.448242 10.8896 0 11.2764 0 11.9224C0 12.5859 0.461426 12.9727 1.13818 12.9727Z"
      fill="#444444" />
  </g>
</svg>