<?xml version="1.0" encoding="UTF-8"?>
<!--Generator: Apple Native CoreSVG 175.5-->
<!DOCTYPE svg
          PUBLIC "-//W3C//DTD SVG 1.1//EN" "http://www.w3.org/Graphics/SVG/1.1/DTD/svg11.dtd">
<svg version="1.1"
     xmlns="http://www.w3.org/2000/svg"
     xmlns:xlink="http://www.w3.org/1999/xlink"
     width="16.6719"
     height="16.125">
  <g>
    <rect height="16.125"
          opacity="0"
          width="16.6719"
          x="0"
          y="0" />
    <path d="M1.32812 15.8984C1.67578 15.8984 1.96875 15.7734 2.36719 15.5508L5.90234 13.6367L9.78906 15.8008C10.1797 16.0195 10.5859 16.125 10.9883 16.125C11.3867 16.125 11.7891 16.0195 12.1602 15.8086L15.7305 13.8008C16.3906 13.4375 16.6719 12.9258 16.6719 12.2148L16.6719 1.77344C16.6719 0.984375 16.1523 0.476562 15.3438 0.476562C14.9961 0.476562 14.707 0.621094 14.3008 0.84375L10.6602 2.86328L6.78125 0.582031C6.40625 0.371094 6.00391 0.265625 5.59766 0.265625C5.21875 0.265625 4.83984 0.363281 4.50781 0.554688L0.9375 2.55859C0.28125 2.92969 0 3.41016 0 4.11719L0 14.6133C0 15.4062 0.519531 15.8984 1.32812 15.8984ZM4.89453 12L2.16406 13.5039C2.09375 13.5391 2.03125 13.5625 1.98047 13.5625C1.85547 13.5625 1.78906 13.4609 1.78906 13.3125L1.78906 4.67188C1.78906 4.39453 1.87109 4.26562 2.12109 4.12109L4.67969 2.65625C4.75781 2.61328 4.82031 2.57812 4.89453 2.53516ZM6.73828 11.9062L6.73828 2.76172C6.81641 2.80469 6.90625 2.85547 6.98438 2.89844L9.93359 4.63281L9.93359 13.6875C9.83984 13.6367 9.74219 13.5859 9.64453 13.5352ZM11.7773 13.7617L11.7773 4.39453L14.5 2.90234C14.5547 2.87109 14.6094 2.85547 14.6562 2.85547C14.7891 2.85547 14.8828 2.95703 14.8828 3.08984L14.8828 11.625C14.8828 11.9023 14.793 12.0391 14.5508 12.1758L12.1367 13.5586C12.0195 13.6289 11.8945 13.6992 11.7773 13.7617Z"
          fill="#ffffff" />
  </g>
</svg>