<?xml version="1.0" encoding="UTF-8"?>
<svg version="1.1"
     xmlns="http://www.w3.org/2000/svg"
     xmlns:xlink="http://www.w3.org/1999/xlink"
     width="19.6665"
     height="15.9844">
  <g>
    <rect height="15.9844"
          opacity="0"
          width="19.6665"
          x="0"
          y="0" />
    <path d="M0 12.4102C0 12.9805 0.449219 13.4141 1.04297 13.4141L2.97656 13.4141C4.39844 13.4141 5.26562 12.9727 6.15234 11.8945L11.0781 5.87891C11.7695 5.03125 12.293 4.74609 13.2852 4.74609L14.8086 4.74609L14.8086 6.39453C14.8086 6.875 15.0977 7.17188 15.5742 7.17188C15.8008 7.17188 15.9844 7.08984 16.1367 6.96484L19.3984 4.21484C19.7578 3.91406 19.7539 3.42188 19.3984 3.11328L16.1367 0.363281C15.9844 0.242188 15.8008 0.164062 15.5742 0.164062C15.0977 0.164062 14.8086 0.457031 14.8086 0.9375L14.8086 2.73047L13.3789 2.73047C11.8398 2.73047 10.8125 3.13672 9.71094 4.48828L5.01172 10.2578C4.34375 11.0742 3.74609 11.4062 2.75781 11.4062L1.04297 11.4062C0.453125 11.4062 0 11.8398 0 12.4102ZM0 3.73828C0 4.30469 0.453125 4.74609 1.04297 4.74609L2.61719 4.74609C3.61328 4.74609 4.34766 5.07812 5.01172 5.89453L9.83984 11.8008C10.8047 12.9766 11.9414 13.4141 13.3672 13.4141L14.8086 13.4141L14.8086 15.2109C14.8086 15.6914 15.0977 15.9844 15.5742 15.9844C15.8008 15.9844 15.9844 15.9062 16.1367 15.7812L19.3984 13.0352C19.7578 12.7266 19.7539 12.2383 19.3984 11.9297L16.1367 9.18359C15.9844 9.05859 15.8008 8.97656 15.5742 8.97656C15.0977 8.97656 14.8086 9.27344 14.8086 9.75391L14.8086 11.4062L13.4023 11.4062C12.3828 11.4062 11.7227 11.0664 11.0586 10.2539L6.15234 4.25391C5.26562 3.17578 4.26172 2.73438 2.83984 2.73438L1.04297 2.73438C0.449219 2.73438 0 3.16797 0 3.73828Z"
          fill="#444444" />
  </g>
</svg>