<?xml version="1.0" encoding="UTF-8"?>
<!--Generator: Apple Native CoreSVG 175.5-->
<svg version="1.1"
     xmlns="http://www.w3.org/2000/svg"
     xmlns:xlink="http://www.w3.org/1999/xlink"
     width="19.2055"
     height="11.8627">
  <g>
    <rect height="11.8627"
          opacity="0"
          width="19.2055"
          x="0"
          y="0" />
    <path d="M10.0246 11.8546C10.6321 11.8546 10.9598 11.5989 11.1455 10.9552L11.9098 8.77877L16.2583 8.77877L17.0227 10.9552C17.2084 11.5989 17.5308 11.8546 18.1382 11.8546C18.7858 11.8546 19.2055 11.4654 19.2055 10.8637C19.2055 10.634 19.1721 10.4419 19.0848 10.1958L15.7834 1.17587C15.5044 0.383794 14.9679 0 14.0953 0C13.268 0 12.7312 0.38095 12.455 1.17054L9.12138 10.2608C9.039 10.4894 9.00314 10.6939 9.00314 10.8864C9.00314 11.4857 9.39226 11.8546 10.0246 11.8546ZM12.4069 7.12422L14.0743 2.18688L14.1208 2.18688L15.7882 7.12422ZM0.911776 11.8386C1.37866 11.8386 1.66413 11.595 1.83136 11.016L2.32329 9.52919L5.35065 9.52919L5.84009 11.0309C5.99987 11.6107 6.28534 11.8386 6.7824 11.8386C7.31463 11.8386 7.68956 11.4896 7.68956 10.9815C7.68956 10.7731 7.64305 10.5824 7.55819 10.3488L5.2403 4.11179C4.97614 3.39425 4.52877 3.05482 3.82188 3.05482C3.14765 3.05482 2.70028 3.39105 2.4411 4.11179L0.128171 10.3488C0.0457964 10.5618 0 10.7901 0 10.9815C0 11.5123 0.346889 11.8386 0.911776 11.8386ZM2.72418 8.15583L3.74588 4.89553L3.89576 4.89553L4.93237 8.15583Z"
          fill="#444444" />
  </g>
</svg>