<?xml version="1.0" encoding="UTF-8"?>
<!--Generator: Apple Native CoreSVG 175.5-->
<svg version="1.1"
     xmlns="http://www.w3.org/2000/svg"
     xmlns:xlink="http://www.w3.org/1999/xlink"
     width="16.3906"
     height="13.8506">
  <g>
    <rect height="13.8506"
          opacity="0"
          width="16.3906"
          x="0"
          y="0" />
    <path d="M0.757356 1.52004L15.6226 1.52004C16.0451 1.52004 16.3906 1.18521 16.3906 0.757356C16.3906 0.334826 16.0451 0 15.6226 0L0.757356 0C0.334826 0 0 0.334826 0 0.757356C0 1.18521 0.334826 1.52004 0.757356 1.52004ZM3.82685 5.61379L12.5584 5.61379C12.9809 5.61379 13.3236 5.27896 13.3236 4.84862C13.3236 4.42609 12.9809 4.09127 12.5584 4.09127L3.82685 4.09127C3.39651 4.09127 3.06168 4.42609 3.06168 4.84862C3.06168 5.27896 3.39651 5.61379 3.82685 5.61379ZM0.757356 9.70506L15.6226 9.70506C16.0451 9.70506 16.3906 9.3649 16.3906 8.94237C16.3906 8.51984 16.0451 8.18253 15.6226 8.18253L0.757356 8.18253C0.334826 8.18253 0 8.51984 0 8.94237C0 9.3649 0.334826 9.70506 0.757356 9.70506ZM3.82685 13.791L12.5584 13.791C12.9809 13.791 13.3236 13.4562 13.3236 13.0336C13.3236 12.6111 12.9809 12.271 12.5584 12.271L3.82685 12.271C3.39651 12.271 3.06168 12.6111 3.06168 13.0336C3.06168 13.4562 3.39651 13.791 3.82685 13.791Z"
          fill="#00d4d4" />
  </g>
</svg>