<?xml version="1.0" encoding="UTF-8"?>
<!--Generator: Apple Native CoreSVG 175.5-->
<svg version="1.1" xmlns="http://www.w3.org/2000/svg" xmlns:xlink="http://www.w3.org/1999/xlink" width="15.7422" height="13.5078">
 <g>
  <rect height="13.5078" opacity="0" width="15.7422" x="0" y="0"/>
  <path d="M0.585938 1.17969L15.1406 1.17969C15.4688 1.17969 15.7422 0.921875 15.7422 0.585938C15.7422 0.257812 15.4688 0 15.1406 0L0.585938 0C0.257812 0 0 0.257812 0 0.585938C0 0.921875 0.257812 1.17969 0.585938 1.17969ZM3.47656 5.27344L12.2578 5.27344C12.5859 5.27344 12.8516 5.01562 12.8516 4.67969C12.8516 4.35156 12.5859 4.09375 12.2578 4.09375L3.47656 4.09375C3.14062 4.09375 2.88281 4.35156 2.88281 4.67969C2.88281 5.01562 3.14062 5.27344 3.47656 5.27344ZM0.585938 9.36719L15.1406 9.36719C15.4688 9.36719 15.7422 9.10156 15.7422 8.77344C15.7422 8.44531 15.4688 8.1875 15.1406 8.1875L0.585938 8.1875C0.257812 8.1875 0 8.44531 0 8.77344C0 9.10156 0.257812 9.36719 0.585938 9.36719ZM3.47656 13.4531L12.2578 13.4531C12.5859 13.4531 12.8516 13.1953 12.8516 12.8672C12.8516 12.5391 12.5859 12.2734 12.2578 12.2734L3.47656 12.2734C3.14062 12.2734 2.88281 12.5391 2.88281 12.8672C2.88281 13.1953 3.14062 13.4531 3.47656 13.4531Z" fill="#00d4d4" fill-opacity="0.85"/>
 </g>
</svg>
