<?xml version="1.0" encoding="UTF-8"?>
<!--Generator: Apple Native CoreSVG 175.5-->
<svg version="1.1" xmlns="http://www.w3.org/2000/svg" xmlns:xlink="http://www.w3.org/1999/xlink" width="17.7969" height="11.5547">
 <g>
  <rect height="11.5547" opacity="0" width="17.7969" x="0" y="0"/>
  <path d="M8.96875 11.5391C9.375 11.5391 9.58594 11.3828 9.73438 10.9453L10.7422 8.1875L15.3516 8.1875L16.3594 10.9453C16.5078 11.3828 16.7109 11.5391 17.1172 11.5391C17.5312 11.5391 17.7969 11.2891 17.7969 10.8984C17.7969 10.7656 17.7734 10.6406 17.7109 10.4766L14.0469 0.71875C13.8672 0.242188 13.5469 0 13.0469 0C12.5625 0 12.2344 0.234375 12.0625 0.710938L8.39844 10.4844C8.33594 10.6484 8.3125 10.7734 8.3125 10.9062C8.3125 11.2969 8.5625 11.5391 8.96875 11.5391ZM11.125 7L13.0234 1.74219L13.0625 1.74219L14.9609 7ZM0.648438 11.5156C0.96875 11.5156 1.17969 11.3516 1.30469 10.9688L1.95312 9.05469L5.00781 9.05469L5.65625 10.9688C5.78125 11.3672 5.99219 11.5156 6.32031 11.5156C6.71094 11.5156 6.97656 11.2734 6.97656 10.9219C6.97656 10.7656 6.9375 10.6172 6.875 10.4531L4.44531 4C4.26562 3.52344 3.9375 3.27344 3.47656 3.27344C3.02344 3.27344 2.69531 3.50781 2.51562 4L0.0859375 10.4531C0.0234375 10.6016 0 10.7578 0 10.9219C0 11.2812 0.25 11.5156 0.648438 11.5156ZM2.29688 8.03906L3.39062 4.78125L3.57031 4.78125L4.66406 8.03906Z" fill="#444444" fill-opacity="0.85"/>
 </g>
</svg>
