<?xml version="1.0" encoding="UTF-8"?>
<!--Generator: Apple Native CoreSVG 175.5-->
<svg version="1.1"
     xmlns="http://www.w3.org/2000/svg"
     xmlns:xlink="http://www.w3.org/1999/xlink"
     width="16.3906"
     height="13.8506">
  <g>
    <rect height="13.8506"
          opacity="0"
          width="16.3906"
          x="0"
          y="0" />
    <path d="M0.757356 1.52004L15.6226 1.52004C16.0451 1.52004 16.3906 1.18521 16.3906 0.757356C16.3906 0.334826 16.0451 0 15.6226 0L0.757356 0C0.334826 0 0 0.334826 0 0.757356C0 1.18521 0.334826 1.52004 0.757356 1.52004ZM0.757356 9.70506L15.6226 9.70506C16.0451 9.70506 16.3906 9.3649 16.3906 8.94237C16.3906 8.51984 16.0451 8.18253 15.6226 8.18253L0.757356 8.18253C0.334826 8.18253 0 8.51984 0 8.94237C0 9.3649 0.334826 9.70506 0.757356 9.70506ZM6.88854 5.61379L15.6226 5.61379C16.0451 5.61379 16.3906 5.27896 16.3906 4.84862C16.3906 4.42609 16.0451 4.09127 15.6226 4.09127L6.88854 4.09127C6.46068 4.09127 6.12585 4.42609 6.12585 4.84862C6.12585 5.27896 6.46068 5.61379 6.88854 5.61379ZM6.88854 13.791L15.6226 13.791C16.0451 13.791 16.3906 13.4562 16.3906 13.0336C16.3906 12.6111 16.0451 12.271 15.6226 12.271L6.88854 12.271C6.46068 12.271 6.12585 12.6111 6.12585 13.0336C6.12585 13.4562 6.46068 13.791 6.88854 13.791Z"
          fill="#00d4d4" />
  </g>
</svg>