<?xml version="1.0" encoding="UTF-8"?>
<svg version="1.1"
     xmlns="http://www.w3.org/2000/svg"
     xmlns:xlink="http://www.w3.org/1999/xlink"
     width="16.7617"
     height="14.0469">
  <g>
    <rect height="14.0469"
          opacity="0"
          width="16.7617"
          x="0"
          y="0" />
    <path d="M0.855469 1.71484L15.8984 1.71484C16.375 1.71484 16.7617 1.33594 16.7617 0.855469C16.7617 0.378906 16.375 0 15.8984 0L0.855469 0C0.378906 0 0 0.378906 0 0.855469C0 1.33594 0.378906 1.71484 0.855469 1.71484ZM4.02734 5.80859L12.7305 5.80859C13.207 5.80859 13.5938 5.42969 13.5938 4.94531C13.5938 4.46875 13.207 4.08984 12.7305 4.08984L4.02734 4.08984C3.54297 4.08984 3.16406 4.46875 3.16406 4.94531C3.16406 5.42969 3.54297 5.80859 4.02734 5.80859ZM0.855469 9.89844L15.8984 9.89844C16.375 9.89844 16.7617 9.51562 16.7617 9.03906C16.7617 8.5625 16.375 8.17969 15.8984 8.17969L0.855469 8.17969C0.378906 8.17969 0 8.5625 0 9.03906C0 9.51562 0.378906 9.89844 0.855469 9.89844ZM4.02734 13.9844L12.7305 13.9844C13.207 13.9844 13.5938 13.6055 13.5938 13.1289C13.5938 12.6523 13.207 12.2695 12.7305 12.2695L4.02734 12.2695C3.54297 12.2695 3.16406 12.6523 3.16406 13.1289C3.16406 13.6055 3.54297 13.9844 4.02734 13.9844Z"
          fill="#00d4d4" />
  </g>
</svg>