<?xml version="1.0" encoding="UTF-8"?>
<!--Generator: Apple Native CoreSVG 175.5-->
<svg version="1.1" xmlns="http://www.w3.org/2000/svg" xmlns:xlink="http://www.w3.org/1999/xlink" width="15.7422" height="13.5078">
 <g>
  <rect height="13.5078" opacity="0" width="15.7422" x="0" y="0"/>
  <path d="M0.585938 1.17969L15.1406 1.17969C15.4688 1.17969 15.7422 0.921875 15.7422 0.585938C15.7422 0.257812 15.4688 0 15.1406 0L0.585938 0C0.257812 0 0 0.257812 0 0.585938C0 0.921875 0.257812 1.17969 0.585938 1.17969ZM0.585938 5.27344L9.375 5.27344C9.70312 5.27344 9.96875 5.01562 9.96875 4.67969C9.96875 4.35156 9.70312 4.09375 9.375 4.09375L0.585938 4.09375C0.257812 4.09375 0 4.35156 0 4.67969C0 5.01562 0.257812 5.27344 0.585938 5.27344ZM0.585938 9.36719L15.1406 9.36719C15.4688 9.36719 15.7422 9.10156 15.7422 8.77344C15.7422 8.44531 15.4688 8.1875 15.1406 8.1875L0.585938 8.1875C0.257812 8.1875 0 8.44531 0 8.77344C0 9.10156 0.257812 9.36719 0.585938 9.36719ZM0.585938 13.4531L9.375 13.4531C9.70312 13.4531 9.96875 13.1953 9.96875 12.8672C9.96875 12.5391 9.70312 12.2734 9.375 12.2734L0.585938 12.2734C0.257812 12.2734 0 12.5391 0 12.8672C0 13.1953 0.257812 13.4531 0.585938 13.4531Z" fill="#00d4d4" fill-opacity="0.85"/>
 </g>
</svg>
