<?xml version="1.0" encoding="UTF-8"?>
<svg version="1.1"
     xmlns="http://www.w3.org/2000/svg"
     xmlns:xlink="http://www.w3.org/1999/xlink"
     width="16.7617"
     height="14.0469">
  <g>
    <rect height="14.0469"
          opacity="0"
          width="16.7617"
          x="0"
          y="0" />
    <path d="M0.855469 1.71484L15.8984 1.71484C16.375 1.71484 16.7617 1.33594 16.7617 0.855469C16.7617 0.378906 16.375 0 15.8984 0L0.855469 0C0.378906 0 0 0.378906 0 0.855469C0 1.33594 0.378906 1.71484 0.855469 1.71484ZM0.855469 5.80859L9.56641 5.80859C10.043 5.80859 10.4258 5.42969 10.4258 4.94531C10.4258 4.46875 10.043 4.08984 9.56641 4.08984L0.855469 4.08984C0.378906 4.08984 0 4.46875 0 4.94531C0 5.42969 0.378906 5.80859 0.855469 5.80859ZM0.855469 9.89844L15.8984 9.89844C16.375 9.89844 16.7617 9.51562 16.7617 9.03906C16.7617 8.5625 16.375 8.17969 15.8984 8.17969L0.855469 8.17969C0.378906 8.17969 0 8.5625 0 9.03906C0 9.51562 0.378906 9.89844 0.855469 9.89844ZM0.855469 13.9844L9.56641 13.9844C10.043 13.9844 10.4258 13.6055 10.4258 13.1289C10.4258 12.6523 10.043 12.2695 9.56641 12.2695L0.855469 12.2695C0.378906 12.2695 0 12.6523 0 13.1289C0 13.6055 0.378906 13.9844 0.855469 13.9844Z"
          fill="#00d4d4" />
  </g>
</svg>