<?xml version="1.0" encoding="UTF-8"?>
<!--Generator: Apple Native CoreSVG 175.5-->
<svg version="1.1"
     xmlns="http://www.w3.org/2000/svg"
     xmlns:xlink="http://www.w3.org/1999/xlink"
     width="16.3906"
     height="13.8506">
  <g>
    <rect height="13.8506"
          opacity="0"
          width="16.3906"
          x="0"
          y="0" />
    <path d="M0.757356 1.52004L15.6226 1.52004C16.0451 1.52004 16.3906 1.18521 16.3906 0.757356C16.3906 0.334826 16.0451 0 15.6226 0L0.757356 0C0.334826 0 0 0.334826 0 0.757356C0 1.18521 0.334826 1.52004 0.757356 1.52004ZM0.757356 5.61379L9.49673 5.61379C9.91926 5.61379 10.2594 5.27896 10.2594 4.84862C10.2594 4.42609 9.91926 4.09127 9.49673 4.09127L0.757356 4.09127C0.334826 4.09127 0 4.42609 0 4.84862C0 5.27896 0.334826 5.61379 0.757356 5.61379ZM0.757356 9.70506L15.6226 9.70506C16.0451 9.70506 16.3906 9.3649 16.3906 8.94237C16.3906 8.51984 16.0451 8.18253 15.6226 8.18253L0.757356 8.18253C0.334826 8.18253 0 8.51984 0 8.94237C0 9.3649 0.334826 9.70506 0.757356 9.70506ZM0.757356 13.791L9.49673 13.791C9.91926 13.791 10.2594 13.4562 10.2594 13.0336C10.2594 12.6111 9.91926 12.271 9.49673 12.271L0.757356 12.271C0.334826 12.271 0 12.6111 0 13.0336C0 13.4562 0.334826 13.791 0.757356 13.791Z"
          fill="#00d4d4" />
  </g>
</svg>