<?xml version="1.0" encoding="UTF-8"?>
<svg version="1.1"
     xmlns="http://www.w3.org/2000/svg"
     xmlns:xlink="http://www.w3.org/1999/xlink"
     width="16.7617"
     height="14.0469">
  <g>
    <rect height="14.0469"
          opacity="0"
          width="16.7617"
          x="0"
          y="0" />
    <path d="M0.855469 1.71484L15.8984 1.71484C16.375 1.71484 16.7617 1.33594 16.7617 0.855469C16.7617 0.378906 16.375 0 15.8984 0L0.855469 0C0.378906 0 0 0.378906 0 0.855469C0 1.33594 0.378906 1.71484 0.855469 1.71484ZM0.855469 9.89844L15.8984 9.89844C16.375 9.89844 16.7617 9.51562 16.7617 9.03906C16.7617 8.5625 16.375 8.17969 15.8984 8.17969L0.855469 8.17969C0.378906 8.17969 0 8.5625 0 9.03906C0 9.51562 0.378906 9.89844 0.855469 9.89844ZM7.19141 5.80859L15.8984 5.80859C16.375 5.80859 16.7617 5.42969 16.7617 4.94531C16.7617 4.46875 16.375 4.08984 15.8984 4.08984L7.19141 4.08984C6.71094 4.08984 6.33203 4.46875 6.33203 4.94531C6.33203 5.42969 6.71094 5.80859 7.19141 5.80859ZM7.19141 13.9844L15.8984 13.9844C16.375 13.9844 16.7617 13.6055 16.7617 13.1289C16.7617 12.6523 16.375 12.2695 15.8984 12.2695L7.19141 12.2695C6.71094 12.2695 6.33203 12.6523 6.33203 13.1289C6.33203 13.6055 6.71094 13.9844 7.19141 13.9844Z"
          fill="#00d4d4" />
  </g>
</svg>