<?xml version="1.0" encoding="UTF-8"?>
<!--Generator: Apple Native CoreSVG 175.5-->
<svg version="1.1" xmlns="http://www.w3.org/2000/svg" xmlns:xlink="http://www.w3.org/1999/xlink" width="15.7422" height="13.5078">
 <g>
  <rect height="13.5078" opacity="0" width="15.7422" x="0" y="0"/>
  <path d="M0.585938 1.17969L15.1406 1.17969C15.4688 1.17969 15.7422 0.921875 15.7422 0.585938C15.7422 0.257812 15.4688 0 15.1406 0L0.585938 0C0.257812 0 0 0.257812 0 0.585938C0 0.921875 0.257812 1.17969 0.585938 1.17969ZM0.585938 9.36719L15.1406 9.36719C15.4688 9.36719 15.7422 9.10156 15.7422 8.77344C15.7422 8.44531 15.4688 8.1875 15.1406 8.1875L0.585938 8.1875C0.257812 8.1875 0 8.44531 0 8.77344C0 9.10156 0.257812 9.36719 0.585938 9.36719ZM6.35938 5.27344L15.1406 5.27344C15.4688 5.27344 15.7422 5.01562 15.7422 4.67969C15.7422 4.35156 15.4688 4.09375 15.1406 4.09375L6.35938 4.09375C6.02344 4.09375 5.76562 4.35156 5.76562 4.67969C5.76562 5.01562 6.02344 5.27344 6.35938 5.27344ZM6.35938 13.4531L15.1406 13.4531C15.4688 13.4531 15.7422 13.1953 15.7422 12.8672C15.7422 12.5391 15.4688 12.2734 15.1406 12.2734L6.35938 12.2734C6.02344 12.2734 5.76562 12.5391 5.76562 12.8672C5.76562 13.1953 6.02344 13.4531 6.35938 13.4531Z" fill="#00d4d4" fill-opacity="0.85"/>
 </g>
</svg>
