<?xml version="1.0" encoding="UTF-8"?><svg id="_レイヤー_2" xmlns="http://www.w3.org/2000/svg" viewBox="0 0 3959.57227 3873.33643"><defs><style>.cls-1{fill:#fff;}</style></defs><g id="_レイヤー_2-2"><path class="cls-1" d="m3788.52246,1555.71851c-4.56006-22.29004-9.54004-44.52002-14.92017-66.65015,82.87012-42.54993,88.73999-62.22998,85.70996-73.3999-3.03003-11.17004-18.01001-25.19995-111.01001-20.14001-19.72998-66.14001-43.09985-131.20007-69.92993-194.63-21.53003-50.92993-45.40991-101.03003-71.45996-150.03003,7.95996-5.37988,13.17993-14.5,13.17993-24.82996,0-16.55994-13.42993-30-30-30-4.28003,0-8.34985.90002-12.04004,2.52991-23.17993-40.5-47.85986-80.13989-73.95996-118.75989-67.24951-99.53925-144.42871-193.17834-229.39795-278.33789l32.81934-32.81921-2.82812-2.82812-32.81934,32.81921c-.00122-.00134-.00244-.00269-.00391-.00403-85.15991-84.97998-178.79004-162.14996-278.33008-229.39996-101.05981-68.27002-209.08984-126.90002-321.08984-174.28003-114.08008-48.25-233.45996-85.31-354.83008-110.14001-123.87988-25.34998-251.35999-38.26996-378.93994-38.38995h-.00439V0h-4v46.42847c-127.57861.12024-255.06714,13.04028-378.94562,38.38995-121.37,24.83002-240.75,61.89001-354.83002,110.14001-112,47.38-220.02997,106.01001-321.08997,174.28003-99.54004,67.25-193.17004,144.41998-278.33002,229.39996l-.00311.00311-32.81836-32.8183-2.82812,2.82812,32.81836,32.8183c-84.96942,85.15955-162.14905,178.79926-229.39874,278.33881-68.27002,101.04993-126.91003,209.07996-174.28003,321.08997-48.25,114.07007-85.31,233.44995-110.13995,354.82007-25.36005,123.87988-38.28003,251.36987-38.40002,378.94995H0v4h46.42236c.12,127.58008,13.03998,255.07007,38.40002,378.94995,24.82996,121.37012,61.88995,240.75,110.13995,354.82007,47.37,112.01001,106.01001,220.04004,174.28003,321.08984,67.24976,99.53955,144.42932,193.17944,229.39899,278.33911l-32.8186,32.8186,2.82812,2.82812,32.81854-32.8186.00293.00293c85.15997,84.97998,178.78998,162.1499,278.33002,229.3999,101.06,68.27002,209.08997,126.90015,321.08997,174.28003,114.08002,48.25,233.46002,85.31006,354.83002,110.14014,123.87848,25.34961,251.367,38.26978,378.94562,38.38989v46.42798h4v-46.42798h.00439c127.57996-.11987,255.06006-13.04004,378.93994-38.38989,121.37012-24.83008,240.75-61.89014,354.83008-110.14014,112-47.37988,220.03003-106.01001,321.08984-174.28003,99.54004-67.25,193.17017-144.41992,278.33008-229.3999.00122-.00122.00244-.00244.00391-.00366l32.81934,32.81934,2.82812-2.82812-32.81934-32.81934c84.96924-85.15967,162.14844-178.79907,229.39795-278.33838,8.3501-12.35986,16.56006-24.81982,24.61011-37.37988,39.02002-2.29004,74.85986-6.96997,107.34985-14.04004,95.63013-20.78003,158.27002-61.45996,186.18018-120.8999,27.90991-59.43994,19.20996-133.62012-25.88013-220.47998-15.30981-29.5-34.57983-60.04004-57.71997-91.51001,19.98999-62.96997,36.66992-127,49.89014-191.6001,25.34985-123.87988,38.27002-251.36987,38.38989-378.94995h46.42456v-4h-46.42456c-.11987-127.58008-13.04004-255.07007-38.38989-378.94995Zm-5.88013,1.19995c25.27002,123.48999,38.15015,250.57007,38.27002,377.75h-795.36987c-47.47021-27.40002-96.1001-54.20996-145.76025-80.34009-1.3999-16.38989-3.21997-32.69995-5.46997-48.92993,233.48999-68.34998,446.16016-136.93994,617.09009-199.29004,118.53003-43.22998,210.56006-81.13989,273.54004-112.6499,1.06982-.53003,2.11987-1.06006,3.15991-1.59009,5.23999,21.61011,10.09009,43.30005,14.54004,65.05005Zm-1981.41992,1313.44995c0,1.19019-.34009,2.29004-.94006,3.21997-1.05994,1.66992-2.93005,2.78003-5.05994,2.78003-2.75,0-5.08008-1.86987-5.78003-4.3999-.15002-.51001-.21997-1.05005-.21997-1.6001,0-1.65991.66992-3.15991,1.76001-4.23999,1.08984-1.08984,2.58984-1.76001,4.23999-1.76001,2.29993,0,4.28992,1.29004,5.30994,3.19019.44006.83984.69006,1.78979.69006,2.80981Zm-6-30c-13.66016,0-25.18005,9.13013-28.80005,21.62012-67.08008-12.25-132.56006-31.82007-195.89001-58.61011-111.40002-47.12012-211.5-114.45996-297.57001-200.16992l-.00305-.00293,329.39008-329.39014.00293.00293c43.28003,42.93994,93.57007,76.68994,149.5,100.3501,38.47998,16.27002,78.52002,27.27002,119.66003,32.89014,20.79846,12.71875,41.85706,25.31812,63.15564,37.78711v432.44287c-36.83862-.07031-73.34717-2.24048-109.45557-6.49023.01001-.13989.01001-.29004.01001-.42993,0-16.57007-13.43005-30-30-30Zm1078.25-989.35999c-18.63013-9.76001-37.40015-19.44006-56.32007-29,17.21997-4.95996,34.33008-9.93005,51.34009-14.91003,2,14.57007,3.65991,29.21008,4.97998,43.91003Zm9.80981,83.66003c-.03979-22.97998-.8999-45.83008-2.55981-68.54004,42.36987,22.37,83.97998,45.22998,124.75,68.54004h-122.19019Zm-609.46777,336.31787c42.93896-43.27954,76.69824-93.56885,100.3479-149.4978,24.5-57.92993,37.06006-119.42017,37.31006-182.82007h465.80981c-.25,126.28003-25.11987,248.78003-73.90991,364.12988-47.10962,111.39941-114.44897,211.51855-200.16797,297.57812l-329.38989-329.39014Zm-973.11212-332.31787h71.91998l36.26001,26.41992,7.07001-9.69995-22.95001-16.71997h68.86005c.06,15.80005.88995,31.47998,2.47998,47.01001-1.47998.59009-2.96002,1.16992-4.41998,1.75l-1.14001-.83008-1.32001,1.81006c-28.81,11.44995-55.26001,22.40015-79.28998,32.84985-28.42004-28.09985-54.26001-55.6499-77.47003-82.58984Zm-86.94-130.59009l-.01654-.01196c.31067-1.24463.49371-2.53967.49371-3.88049,0-8.83655-7.16345-16-16-16-.96759,0-1.91034.10046-2.83063.26501-.00214-.00415-.00439-.0083-.00653-.01245-.27002-.51001-.53998-1.02002-.79999-1.53003-43.57001-83.95996-52.22003-155.16003-25.71002-211.63,26.52002-56.46997,86.83002-95.28992,179.26001-115.38,29.18945-6.34985,61.13885-10.73999,95.73804-13.17981l155.63086,155.63086c-35.58948,35.86987-64.85913,76.54944-87.29889,121.25891-2.97998-1-6.16998-1.54004-9.47998-1.54004-16.57001,0-30,13.44006-30,30,0,11.53003,6.50995,21.55005,16.04999,26.56006-17.67004,49.96997-26.72003,102.32007-26.92999,156.04004h-74.35004l-14.39996-10.48999-7.06,9.69995,1.07996.79004h-69.85999c-32.42999-38-59.58997-74.79004-81.33002-110.16003l21.60004,15.73999,7.07001-9.69995-30.85004-22.47009Zm720.90564,243.51001c-3.60864-.05029-7.177-.28003-10.69556-.66992,3.55847-.78979,7.12695-1.57935,10.69556-2.36914v3.03906Zm4-3.91895c.00146-.00024.00293-.00073.00439-.00098,19.15991-4.26001,38.55005-8.60986,58.13989-13.07007-16.96997,10.46021-36.85986,16.64014-58.13989,16.98999h-.00439v-3.91895Zm.00439-10.25098c-.00146.00024-.00293.00073-.00439.00098v-79.66211h-4v80.54199c-11.44849,2.53979-22.81714,5.03931-34.0957,7.50928-16.55994-5.48022-31.44995-14.63013-43.71997-26.49023-.00098-.00098-.00195-.00195-.00305-.00293l66.32068-66.3208-2.82812-2.82812-66.32068,66.3208c-19.56921-20.25-31.7688-47.62964-32.27869-77.81885h93.83667v-4h-93.83667c.47998-28.92993,11.70996-55.28003,29.85986-75.23999,1.25952-.40991,2.50903-.81982,3.76855-1.22949l64.97095,64.97095,2.82812-2.82812-63.52197-63.52197.00439-.00146c24.5686-7.95947,49.58716-15.94897,75.01562-23.97852v82.73926h4v-83.99927l.00439-.00146c7.56006-2.38989,15.1499-4.7699,22.79004-7.15991,21.08997,4.64001,40.02002,15.09998,55.02002,29.59998.00122.00122.00244.00256.00366.00378l-66.31958,66.31958,2.82812,2.82812,66.31958-66.31958c19.56885,20.24988,31.76807,47.62915,32.27808,77.81812h-93.83496v4h93.83496c-.51001,30.18896-12.70923,57.56812-32.27783,77.81787l-66.31982-66.31982-2.82812,2.82812,66.31982,66.31982c-.00134.00122-.00256.00269-.00391.00391-.23999.22998-.47009.45996-.71008.68994-26.06995,5.98022-51.77991,11.78027-77.09998,17.41016Zm-308.33008,62.91992c-.00415.00073-.00806.00146-.01221.0022-2.88647-4.18091-7.70593-6.92505-13.1709-6.92505-7.4812,0-13.74487,5.14185-15.49597,12.07935-.00696.00122-.01404.00244-.02087.00366-34.04999,6.02979-66.04999,11.35986-95.95001,15.98999-.33997-.78003-.66998-1.56006-1-2.34009-14.54999-34.3999-24.82996-70.07007-30.75995-106.66992l20.62,15.02979,7.06995-9.69971-30.08997-21.92017c-.09003-.72998-.17999-1.45996-.26001-2.18994,33.92999-13.37012,71.02002-27.40015,111.16998-42.04004,11.7901-4.30005,23.78009-8.63013,35.96002-12.98999h197.34009c.5,31.82935,13.37939,60.71875,34.04871,82.04883l-45.61182,45.61182c-61.12878,12.68994-119.26794,24.06958-173.83704,34.00928Zm-162.47992-161.66992h121.03998c-3.31,1.19995-6.59998,2.39014-9.88,3.58984-39.22998,14.31006-75.54999,28.04004-108.88,41.14014-1.45996-14.79004-2.21997-29.70996-2.27997-44.72998Zm28.88-186.6001c0-2.91992,2.09998-5.36987,4.87994-5.88989.36005-.07007.74005-.11011,1.12006-.11011,1.81995,0,3.44995.82007,4.54999,2.1001.90997,1.05005,1.45001,2.41992,1.45001,3.8999,0,3.19006-2.51001,5.81006-5.66003,5.9801-.10999.0199-.22998.0199-.33997.0199-2.11005,0-3.96002-1.08984-5.02002-2.72998-.63-.93994-.97998-2.05994-.97998-3.27002Zm6,30c16.56995,0,30-13.42993,30-30,0-11.11987-6.06-20.82983-15.05005-26,22.13977-44.04956,50.99939-84.12903,86.06891-119.47888l243.67957,243.67944c-89.01941,28.89978-172.07898,57.20984-247.47839,84.39954h-132.10004c.20996-52.93994,9.12-104.55005,26.5-153.80005,2.65997.79004,5.46997,1.19995,8.38,1.19995Zm431.9256,40.2915c-21.78857,6.86963-43.2771,13.71899-64.43555,20.53857,18.25891-12.96924,40.46729-20.74878,64.43555-21.1499v.61133Zm-305.04565,112.30859c65.39001-23.26001,136.16003-47.29004,211.26001-71.76001-15.3999,19.93994-24.70996,44.79004-25.13989,71.76001h-186.12012Zm222.99683,88.87695c.0011.00098.0022.00195.00317.00293,10.68005,10.3501,23.26001,18.74023,37.16003,24.61011-26.64001,5.78003-52.80994,11.34985-78.46008,16.68994-.00256.00049-.00513.00098-.00757.00171l41.30444-41.30469Zm168.09705-173.7533c-.00134-.00122-.00256-.00244-.00378-.00366-13.52002-13.09998-30.08008-23.05994-48.5-28.72998,36.38989-11.35999,73.56995-22.78003,111.43994-34.21008l.01099-.0033-62.94714,62.94702Zm36.8761,88.87634h292.6001c-111.87012,28.62988-220.46997,55.08984-323.66003,78.85986,18.90002-20.97998,30.57996-48.58984,31.05994-78.85986Zm0-4c-.51001-31.8291-13.38916-60.71826-34.0481-82.0481l68.22363-68.22363c82.27832-24.79944,167.75647-49.69873,255.40454-74.39832,7.88989,14.29004,15.06006,29.03003,21.46997,44.19006,22.85999,54.06995,35.18994,111.29004,36.67993,170.27002-13.21997,3.42993-26.38989,6.82996-39.5199,10.20996h-308.21008Zm211.98193-328.07812c28.3092,28.52954,52.5686,60.14893,72.50806,94.44812-80.57812,22.71936-159.29626,45.60901-235.39453,68.43848l162.88647-162.8866Zm104.58813,145.25806c-6.31006-14.91992-13.33008-29.42993-21.07007-43.52002,39.11011-11,78.65015-21.95996,118.53003-32.84985,72.72998,29.54993,145.80005,61.55994,218.87012,95.87988,33.5,15.72998,66.61987,31.77002,99.33984,48.09009-73.55981,21.08997-148.88989,42.07996-225.36987,62.78003-51.51001,13.94995-102.63013,27.5199-153.18005,40.66992-1.67004-59.22998-14.14001-116.70996-37.12-171.05005Zm-26.12-52.48999c-20.34949-35.25928-45.17896-67.73853-74.22815-97.00806l1.13098-1.13086c60.07898,20.91968,120.60803,43.63928,181.38708,68.06897-36.40991,9.97998-72.52991,20.01001-108.28992,30.06995Zm-81.29993-95.59998c.00122.00122.00244.00256.00378.00378l-168.14307,168.14294c-.00354.0011-.0072.0022-.01086.0033-49.92993,15-98.69995,29.96997-146.09985,44.83997-4.53003-.58997-9.14014-.93994-13.82007-1-.00146-.00012-.00293,0-.00439-.00012v-313.66089c.00146.00024.00293.00061.00439.00098,70.73999,16.73999,144.29004,37.02002,220.21997,60.76001,32.90002,10.29004,65.97998,21.14014,99.19995,32.55005,2.91003,2.72998,5.80005,5.52002,8.65015,8.35999Zm-104.87012-50.44995c-76.97998-24.06006-151.52002-44.59998-223.19995-61.5-.00146-.00037-.00293-.00061-.00439-.0011v-23.93896h.00439c62.57996.25,123.29004,12.64001,180.47998,36.83008,43.65991,18.46997,83.84998,43.16992,119.89001,73.65991-25.81995-8.68994-51.54993-17.04004-77.17004-25.04993Zm-227.20435-62.44104c-25.63855-6.00952-50.89697-11.54932-75.77563-16.60901,24.86865-4.14978,50.16699-6.28967,75.77563-6.39001v22.99902Zm0,10.28003v314.60107c-30.88831.49121-58.99658,12.63086-80.12561,32.21997-.95007.29993-1.89001.60986-2.82996.90991l-.00439.00146-245.11865-245.11853.00293-.00293c42.73999-42.40002,92.39014-75.70996,147.59009-99.05994,25.62988-10.8501,51.96997-19.31006,78.87-25.38013,33.16858,6.41992,67.05701,13.68945,101.6156,21.8291Zm-182.81567-1.979c-55.92993,23.65991-106.21997,57.40991-149.5,100.34998l-.00293.00293-153.16266-153.1626c.00189-.00012.00372-.00024.00562-.00037,20.04004-1.29004,40.96002-1.93994,62.73004-1.93994,55.52997,0,116.63989,4.19995,182.92993,12.60999,40.01001,5.06995,81.34009,11.59998,123.87012,19.55994-22.73999,5.82007-45.06006,13.3501-66.87012,22.58008Zm-338.02997,556.3501c-9.57001-8.9502-18.88995-17.8501-27.95001-26.7002,21.57001-9.32983,45.06006-19.06006,70.43005-29.17993l10.76996,7.8501c5.84003,39.1499,16.57001,77.28979,32.10004,114,.13.30981.26996.62988.39996.93994-3,.45996-5.97998.90991-8.94,1.36011-26.90997-22.79004-52.52997-45.55005-76.81-68.27002Zm63.67004,70.20996c-57.60004,8.41992-106.53003,13.95996-146.31,16.54004-97.68005,6.34985-109.21002-7.72021-110.42004-12.18018-1.20996-4.45996,1.65002-22.41992,89.19-66.22998,19.28003-9.6499,41.31-19.8999,66.02002-30.72998,10.02997,9.83008,20.37,19.72998,31.02002,29.68994,22.38995,20.93994,45.89996,41.92017,70.5,62.91016Zm26.23999,6.17993c.70001,1.57007,1.41998,3.13013,2.14996,4.68994-1.69-1.40991-3.38995-2.82983-5.07001-4.23999.97003-.1499,1.94-.2998,2.92004-.44995Zm6.14996-.94995c28.91785-4.49951,59.7655-9.6394,92.49268-15.42896,2.4021,5.802,8.11401,9.88599,14.78418,9.88599,8.63831,0,15.65881-6.85059,15.97034-15.41284.00769-.00146.01526-.00269.02283-.00415,49.88916-9.10986,102.76807-19.40967,158.15698-30.79932l-157.29834,157.29834c-41.19946-30.20972-80.26904-60.49951-117.09863-90.77905-2.42999-4.87012-4.78003-9.79004-7.03003-14.76001Zm116.97864,112.68896l-23.09985,23.09985c-29.34943-29.5896-54.35907-62.4895-74.70874-98.25879,31.09955,25.06982,63.72906,50.13916,97.80859,75.15894Zm3.25793,2.39844c.0011.00073.0022.00146.00342.00244,49.08008,35.93018,101.17004,71.75,156.06006,107.33008,23.68994,15.3501,47.75,30.56006,72.15991,45.61011-35.71997-5.98999-70.54993-16.13013-104.15991-30.3501-55.19995-23.34985-104.8501-56.65991-147.59009-99.06006l-.00293-.00293,23.52954-23.52954Zm161.50342,98.94263c-54.27002-35.17017-105.78003-70.58008-154.33997-106.1001-.0011-.00073-.00232-.00171-.00354-.00269l161.14563-161.14551c.00256-.00049.00525-.00122.00793-.00171,35.70996-7.38013,72.44995-15.19995,110.09998-23.42993,8.40857,2.01953,17.15723,3.14941,26.13562,3.27979v347.88013c-17.30859-.07031-34.47705-1.07031-51.46558-2.98999-31.09009-18.91016-61.63013-38.08008-91.58008-57.48999Zm143.04565,66.47998v21.78711c-13.27856-7.80884-26.46704-15.65796-39.55566-23.55713,13.08862,1.12964,26.2771,1.71973,39.55566,1.77002Zm4-353.88013h.00439c27.75-.43994,53.26001-10.29004,73.47998-26.48999,4.35999-1,8.71997-2,13.09998-3.01001.00208-.00049.00427-.00098.00647-.00146l241.48755,241.48755-.00391.00391c-42.74011,42.40015-92.39014,75.71021-147.59009,99.06006-57.18994,24.18994-117.90002,36.58008-180.47998,36.83008h-.00439v-347.88013Zm91.18774-30.56079c114.49902-26.38989,235.63794-56.06934,360.48657-88.35913h15.13013c-.25,62.58008-12.65015,123.30005-36.83008,180.47998-23.34961,55.21899-56.67896,104.86841-99.06787,147.5979l-239.71875-239.71875Zm847.42651-92.35913h-465.80981c0-.48999,0-.97998-.01001-1.46997,51.33997-13.36011,103.28003-27.14001,155.61987-41.31006,80.14014-21.69995,159.02002-43.70996,235.94019-65.81006,24.03979,12.08008,47.84985,24.34009,71.42993,36.75,1.84009,23.79004,2.79004,47.75,2.82983,71.84009Zm-10.22998-137.56006c-20.84985,6.09009-41.86987,12.19006-63.04004,18.27002-35.93994-18.05005-72.37988-35.75-109.26978-53.06995-69.19019-32.49011-138.37012-62.91003-207.26001-91.15002,6.1499-1.67993,12.30994-3.34998,18.46997-5.02002,103.46997-28.01001,205.37988-54.53003,304.18994-79.15991,27.21997,67.87988,46.23999,138.1499,56.90991,210.12988Zm-51.02979-211.59998c235.34985-58.57996,452.84985-106.5,631.33984-138.79993,123.78003-22.41003,221.97998-36.07007,291.87012-40.61011,1.96997-.12988,3.90991-.25,5.81006-.35986,7.41992,25.23999,14.28979,50.63989,20.60986,76.15991-1.68994.85999-3.41992,1.72998-5.17993,2.60999-62.64014,31.34998-154.32007,69.09998-272.5,112.21008-170.40015,62.15991-382.3501,130.52991-615.1001,198.67993-10.72998-71.89001-29.72998-142.07007-56.84985-209.89001Zm-312.68018,70.9801c-10.38989,2.80994-20.76001,5.62988-31.10986,8.44995-63.48901-25.74963-126.70825-49.6394-189.43726-71.56909l320.40918-320.40894c85.71899,86.05933,153.05835,186.17883,200.16797,297.578,1,2.35999,1.98999,4.71997,2.95996,7.08997-98.43994,24.55005-199.94995,50.95996-302.98999,78.86011Zm-224.74438-64.57812c-.00183-.00073-.00366-.00122-.00562-.00195-8.22998-2.88-16.44995-5.70996-24.65991-8.5-39.27002-35.34998-83.70996-63.62-132.43994-84.23999-57.93018-24.5-119.43018-37.05005-182.82007-37.30005h-.00439v-465.81995h.00439c126.27002.25,248.78003,25.12,364.13,73.91003,111.40002,47.11987,211.5,114.45996,297.56995,200.16992l.00391.00391-321.77832,321.77808Zm-343.92993-130.04199c-31.08862.12036-61.70703,3.2002-91.68555,9.19995-50.66016-9.97998-99.67017-17.97998-146.87012-23.95996-96.66992-12.25-182.44995-15.61987-256.28998-10.11987-.00183.00012-.0036.00024-.00543.00049l-166.85754-166.85767c.00104-.00098.00195-.00195.00299-.00293,86.07001-85.70996,186.16998-153.05005,297.57001-200.16992,115.35864-48.78955,237.85718-73.65942,364.13562-73.90991v465.81982Zm-500.09766-24.46973c-31.79919,2.56995-61.3385,6.80994-88.53796,12.72974-95.64001,20.79004-158.28003,61.45996-186.19,120.90002s-19.20001,133.62,25.88,220.47998c.28998.56995.58997,1.13.89001,1.70007.00092.00171.00195.00366.00287.00537-2.70575,2.8656-4.37573,6.71985-4.37573,10.97205,0,8.83655,7.16345,16,16,16,1.10577,0,2.1853-.11243,3.22791-.32593l.00494.00842c21.76001,36.83008,49.38,75.17004,82.70001,114.80005h-288.12c.25-126.28003,25.12-248.78003,73.90997-364.13,47.1098-111.39954,114.45941-211.51917,200.16888-297.57886l164.43909,164.43909Zm-147.01794,501.26978c24.03998,28.33008,50.97998,57.32007,80.75995,86.8999-23.39996,10.32007-44.37,20.11011-62.83997,29.3501-91.10999,45.6001-97.48999,66.22998-94.35999,77.78003,2.57996,9.55981,13.91998,21.19995,75.32001,21.19995,12.81995,0,27.82996-.51001,45.39996-1.6499,42.01001-2.72998,94.14001-8.72021,155.79999-17.91016,9.54004,8.05005,19.23999,16.1001,29.10004,24.16016,21.80975,41.2793,49.53931,78.979,82.78876,112.48877l-329.38989,329.39014c-85.70947-86.06006-153.05908-186.17944-200.16888-297.5791-48.78998-115.34985-73.65997-237.84985-73.90997-364.12988h291.5Zm651.1156,508.51758c.00146.00073.00293.00146.00439.00244,110.32996,64.44995,227.03003,125.62988,348.65991,182.75,61.19006,28.72998,122.38013,55.83984,183.37012,81.26001-52.48999,36.28003-108.59009,67.09009-167.90002,92.17993-115.34998,48.79004-237.85999,73.66016-364.13,73.91016h-.00439v-430.10254Zm352.91431,173.69238c-123.20996-57.85986-241.35986-119.8999-352.90991-185.28003-.00146-.00073-.00293-.00171-.00439-.00269v-24.1272h.00439c63.38989-.25,124.88989-12.80005,182.82007-37.30005,55.91992-23.66016,106.19995-57.3999,149.48999-100.3501.00122-.00122.00256-.00269.00391-.00391l329.38989,329.39014c-.00134.00146-.00256.00244-.00391.00391-37.41992,37.26001-77.47998,71.04004-119.96997,101.20996-62.79004-26.07007-125.80005-53.93994-188.82007-83.54004Zm313.03003-13.42993l.00391-.00391,223.46729,223.46729c-.00366-.00122-.00757-.0022-.01123-.00342-1.61987-.5-3.25-1.01001-4.87988-1.52002-110.48999-34.54004-223-75.45996-336.26001-122.26001,41.62988-29.80005,80.92993-63.06982,117.67993-99.67993Zm2.83203-2.83203c86.26904-86.61938,154.03857-187.3689,201.45801-299.47803,49.1001-116.09985,74.12988-239.38989,74.37988-366.46997h129.15015c61.32983,35.21997,120.76001,71.45996,178.03003,108.58008,147.58008,95.63989,274.68994,193.04004,377.7998,289.46997,66.39014,62.09985,120.65015,121.75,162.21021,178.28003-16.92017,52.56006-36.16016,104.35986-57.62012,155.10986-40.41992,95.55005-89.05981,188.2002-144.90991,276.07007-70.03003,4.11011-150.56006.45996-240.71997-10.95996-136.40869-17.28979-288.05664-51.51929-450.94458-101.76831l-228.8335-228.83374Zm1176.39795-1200.12793c56.86011,0,64.82007,10.12988,65.82007,13.78992,1.1499,4.28003-1.41992,20.93005-78.51001,60.79993-6.14014-24.67993-12.79004-49.25-19.94995-73.67993,12.36987-.63,23.17993-.90991,32.63989-.90991Zm-193.75-384.45007h.07007c3.28003.03992,5.92993,2.71997,5.92993,6,0,1.14001-.31982,2.21997-.88989,3.13-1.05005,1.71997-2.94995,2.87-5.11011,2.87-.06006,0-.11987,0-.16992-.01001-3.22998-.07996-5.83008-2.73999-5.83008-5.98999,0-1.10999.30005-2.15002.84009-3.04993,1.04004-1.76001,2.95996-2.95007,5.15991-2.95007Zm-90.96997-136.87c26.01001,38.47998,50.6001,77.98999,73.69995,118.34998-7.69995,5.43005-12.72998,14.39001-12.72998,24.52002,0,16.56995,13.43018,30,30,30,4.09009,0,7.98999-.81995,11.54004-2.30994,25.95996,48.82996,49.75,98.76001,71.21997,149.5,26.55005,62.79993,49.70996,127.19995,69.28003,192.65991-1.16992.08008-2.3501.15002-3.54004.22998-70.28003,4.57007-168.85986,18.28003-293.02002,40.75-179.02979,32.41003-397.26001,80.48999-633.34985,139.29004-1.09009-2.66003-2.19995-5.31006-3.32007-7.95996-47.41943-112.10925-115.18896-212.85864-201.45801-299.47803l663-662.99988c84.71924,84.88959,161.63843,178.21863,228.67798,277.44788ZM1938.67236,52.42847c127.16992.12,254.26001,13,377.73999,38.26996,120.97998,24.75,239.97998,61.69,353.68994,109.79004,111.65015,47.21997,219.34009,105.66998,320.07007,173.71997,99.21997,67.03998,192.56006,143.96002,277.43994,228.67999.00146.00134.00269.00269.00391.00403l-663,662.99988-.00391-.00391c-86.60999-86.26001-187.35999-154.04004-299.46997-201.44995-116.09998-49.11011-239.39001-74.14001-366.46997-74.39001h-.00439V52.42847h.00439ZM605.72235,602.88843c84.88-84.71997,178.21997-161.64001,277.44-228.67999,100.73999-68.04999,208.41998-126.5,320.07001-173.71997,113.70996-48.10004,232.70996-85.04004,353.69-109.79004,123.47852-25.26965,250.56714-38.14972,377.74561-38.26996v937.62012c-127.0885.25049-250.37695,25.28027-366.47565,74.38989-112.10999,47.40991-212.85999,115.18994-299.46997,201.44995-.00104.00098-.00201.00195-.00305.00293l-663.00012-662.99982c.00104-.00104.00214-.00208.00317-.00311ZM90.69238,1556.91846c24.75995-120.96997,61.69995-239.96997,109.78998-353.68994,47.22998-111.64014,105.67999-219.33008,173.72998-320.06006,67.03973-99.22955,143.95935-192.5592,228.67877-277.44879l663.00012,662.99994c-86.26953,86.61963-154.03906,187.36926-201.45886,299.47888-49.10004,116.09998-74.13,239.38989-74.38,366.46997H52.42236c.12-127.17993,13-254.26001,38.27002-377.75Zm283.51996,1433.25c-68.04999-100.72998-126.5-208.41992-173.72998-320.06006-48.09003-113.71997-85.03003-232.71997-109.78998-353.68994-25.27002-123.48999-38.15002-250.57007-38.27002-377.75h937.63c.25,127.08008,25.27997,250.37012,74.38,366.46997,47.4198,112.10962,115.18933,212.85913,201.45886,299.47876l-662.99988,663.00024c-84.71967-84.88965-161.63922-178.21948-228.67902-277.44897Zm1182.71002,792.46997c-120.98004-24.75-239.98004-61.68994-353.69-109.79004-111.65002-47.21997-219.33002-105.66992-320.07001-173.71997-99.22003-67.04004-192.56-143.95996-277.44-228.67993l-.00293-.00293,662.99988-663c.00104.00098.00201.00195.00305.00293,86.60999,86.26001,187.35999,154.04004,299.46997,201.45996,63.73004,26.95996,129.62994,46.65015,197.13995,58.97998-.07996.82007-.10986,1.63989-.10986,2.47998,0,16.57007,13.42993,30,30,30,14.36987,0,26.37988-10.09985,29.30994-23.59985,36.32849,4.26978,73.07703,6.44971,110.13562,6.52002v937.61987c-127.17847-.12012-254.26709-13.00024-377.74561-38.27002Zm1710.68994-512.18994c-84.87988,84.71997-178.21997,161.63989-277.43994,228.67993-100.72998,68.05005-208.41992,126.5-320.07007,173.71997-113.70996,48.1001-232.70996,85.04004-353.68994,109.79004-123.47998,25.27002-250.57007,38.15015-377.73999,38.27002h-.00439v-937.61987h.00439c127.07996-.25,250.37-25.28027,366.46997-74.38013,60.88-25.75,118.40002-57.5,172.14001-94.96997,115.5,47.92993,230.26013,89.77002,342.92004,124.98999,7.68994,2.3999,15.34985,4.77002,22.98999,7.09985.00366.00098.00708.0022.01074.00342l424.41309,424.41309c-.00146.00122-.00269.00244-.00391.00366Zm231.51001-280.28003c-67.03955,99.22925-143.95874,192.55859-228.67798,277.44824l-419.11621-419.11646c156.62793,47.42896,302.69604,79.90845,434.64429,96.63818,66.68994,8.44995,128.17993,12.67017,184.16992,12.67017,17.6001,0,34.65991-.42017,51.15991-1.25-7.27002,11.28979-14.66992,22.48975-22.17993,33.60986Zm288.36011-384.83008c27.11987,52.26001,40.70996,99.57007,40.70996,141.47021,0,25.40991-5,48.82983-15.01001,70.1499-26.52002,56.46997-86.83008,95.29004-179.26001,115.37988-29.98999,6.52002-62.89014,10.97998-98.58008,13.38013,55.05005-87.05005,103.05005-178.75,143.03003-273.28003,20.95996-49.57007,39.82007-100.14014,56.46997-151.44995,20.93994,28.97998,38.51001,57.11987,52.64014,84.34985Zm-4.84009-288.91992c-12.88989,62.96997-29.08008,125.40991-48.42993,186.83984-41.36011-55.31982-94.57007-113.46973-159.12012-173.83984-103.54004-96.84009-231.11987-194.6001-379.18994-290.56006-52.72998-34.16992-107.28003-67.6001-163.45996-100.18994h788.46997c-.11987,127.17993-13,254.26001-38.27002,377.75Z"/><polygon class="cls-1" points="1537.39233 2058.71851 1580.23236 2089.92847 1587.29236 2080.22852 1544.46234 2049.01855 1537.39233 2058.71851"/><polygon class="cls-1" points="1330.28235 1892.96851 1287.44232 1861.75842 1280.38232 1871.4585 1323.21234 1902.66846 1330.28235 1892.96851"/><path class="cls-1" d="m3917.00244,1919.3584h-22.93018v4.58008h-4.58984v9.17993h4.58984v4.59009h18.3501v4.58008h-4.59009v4.58984h-13.76001v4.59009h18.3501v-4.59009h4.58008v-4.58984h4.58984v-18.3501h-4.58984v-4.58008Zm-4.58008,13.76001h-13.76001v-9.17993h13.76001v9.17993Z"/><polygon class="cls-1" points="3954.99243 1928.52844 3954.99243 1923.93848 3950.40234 1923.93848 3950.40234 1919.3584 3936.64233 1919.3584 3936.64233 1923.93848 3945.81226 1923.93848 3945.81226 1928.52844 3950.40234 1928.52844 3950.40234 1946.87842 3954.99243 1946.87842 3954.99243 1942.28857 3959.57227 1942.28857 3959.57227 1928.52844 3954.99243 1928.52844"/><polygon class="cls-1" points="3941.22241 1942.28857 3936.64233 1942.28857 3936.64233 1923.93848 3932.05225 1923.93848 3932.05225 1928.52844 3927.4624 1928.52844 3927.4624 1942.28857 3932.05225 1942.28857 3932.05225 1946.87842 3936.64233 1946.87842 3936.64233 1951.46851 3950.40234 1951.46851 3950.40234 1946.87842 3941.22241 1946.87842 3941.22241 1942.28857"/></g></svg>