<svg xmlns="http://www.w3.org/2000/svg" width="250" height="249.62" viewBox="0 0 250 249.62"><defs><style>.a{fill:#00d4d4;}</style></defs><g transform="translate(-275.537 -280.562)"><path class="a" d="M668.991,862.068l-32.38,32.38,45.463,45.463V830.794H668.991Zm0,46.257-13.877-13.877,13.877-13.877Z" transform="translate(-275.016 -419.09)"/><path class="a" d="M872.375,867.837v61.887h29.26l-29.26,29.26v18.5L927.2,922.662Zm13.083,48.8V899.423l17.217,17.217Z" transform="translate(-454.588 -447.305)"/><path d="M858.636,788.981l32.38,32.38L936.479,775.9H827.362v13.084Zm46.257,0-13.877,13.877-13.877-13.877Z" transform="translate(-420.304 -377.277)"/><path d="M864.405,555.68h61.887V526.42l29.26,29.26h18.5L919.23,500.855Zm48.8-13.083H895.991l17.217-17.217Z" transform="translate(-448.518 -167.789)"/><path d="M785.721,395.917l32.38-32.38-45.463-45.463V427.191h13.083Zm0-46.257L799.6,363.537l-13.877,13.877Z" transform="translate(-378.622 -28.571)"/><path d="M552.42,390.212V328.325H523.16l29.26-29.26v-18.5L497.6,335.387Zm-13.083-48.8v17.217l-17.217-17.217Z" transform="translate(-169.133)"/><path d="M385.187,877.573H323.3v29.26l-29.26-29.26h-18.5L330.362,932.4Zm-48.8,13.084H353.6l-17.217,17.217Z" transform="translate(0 -454.72)"/><path d="M392.658,672.423l-32.38-32.38-45.463,45.463H423.932V672.423Zm-46.257,0,13.877-13.877,13.877,13.877Z" transform="translate(-29.917 -273.803)"/><rect class="a" width="13.084" height="13.084" transform="translate(394.016 398.62)"/></g></svg>